<svg xmlns="http://www.w3.org/2000/svg" viewBox="0 0 512 512" id="adaptation">
  <path fill="#41d980" fill-rule="evenodd" d="m256,255.718c54.65,0,100.192,52.655,110.373,122.467h-220.747c10.181-69.811,55.723-122.467,110.373-122.467Z"></path>
  <path fill="#4fe88e" fill-rule="evenodd" d="m272.688,257.388c47.031,9.452,84.561,58.23,93.686,120.797h-187.372c9.125-62.567,46.654-111.345,93.686-120.797Z"></path>
  <circle cx="256" cy="184.158" r="50.343" fill="#ffc186" transform="rotate(-16.845 256.002 184.16)"></circle>
  <path fill="#fdd7ad" fill-rule="evenodd" d="m267.674,135.179c22.174,5.266,38.669,25.195,38.669,48.98s-16.495,43.714-38.669,48.979c-22.173-5.266-38.669-25.195-38.669-48.979s16.495-43.714,38.669-48.98Z"></path>
  <path fill="#fddb1e" fill-rule="evenodd" d="m98.898,98.898c86.765-86.765,227.439-86.765,314.205,0,86.765,86.765,86.765,227.439,0,314.205-86.765,86.765-227.439,86.765-314.205,0-86.765-86.765-86.765-227.439,0-314.205h0Zm22.078,22.078c-74.572,74.572-74.572,195.477,0,270.048,74.572,74.572,195.476,74.572,270.048,0,74.572-74.572,74.572-195.476,0-270.048-74.572-74.572-195.476-74.572-270.048,0Z"></path>
  <circle cx="256" cy="49.435" r="39.435" fill="#0e82f5"></circle>
  <path fill="#009ef9" fill-rule="evenodd" d="m283.885,21.55c15.401,15.401,15.401,40.37,0,55.77-4.609,4.609-10.075,7.837-15.885,9.687-5.81-1.85-11.276-5.079-15.885-9.687-15.401-15.401-15.401-40.37,0-55.77,4.609-4.609,10.075-7.837,15.885-9.687,5.81,1.85,11.276,5.079,15.885,9.687Z"></path>
  <circle cx="256" cy="462.565" r="39.435" fill="#41d980"></circle>
  <rect width="78.871" height="78.871" x="10" y="216.565" fill="#fb545c" rx="9.191" ry="9.191"></rect>
  <path fill="#d93b43" fill-rule="evenodd" d="m10,225.756v60.489c0,5.055,4.136,9.191,9.191,9.191h22.731v-78.871h-22.731c-5.055,0-9.191,4.136-9.191,9.191Z"></path>
  <rect width="78.871" height="78.871" x="423.129" y="216.565" fill="#ee8700" rx="9.191" ry="9.191"></rect>
  <path fill="#e37200" fill-rule="evenodd" d="m423.129,225.756v60.489c0,5.055,4.136,9.191,9.191,9.191h22.731v-78.871h-22.731c-5.055,0-9.191,4.136-9.191,9.191Z"></path>
  <path fill="#4fe88e" fill-rule="evenodd" d="m283.885,434.68c15.401,15.401,15.401,40.37,0,55.77-4.609,4.609-10.075,7.837-15.885,9.687-5.81-1.85-11.276-5.079-15.885-9.687-15.401-15.401-15.401-40.37,0-55.77,4.609-4.609,10.075-7.837,15.885-9.687,5.81,1.85,11.276,5.079,15.885,9.687Z"></path>
</svg>
