<svg xmlns="http://www.w3.org/2000/svg"  viewBox="0 0 520 520" width="64px" height="64px"><path fill="#59d9a4" d="M343.75,85.5H239v60h104.75c24.85,0,45,20.15,45,45s-20.15,45-45,45c-9.672,0-273.803,0-281,0v60 c8.875,0,281.646,0,288.33,0v-0.259c54.566-3.762,97.67-49.213,97.67-104.741C448.75,132.51,401.74,85.5,343.75,85.5z"/><path fill="#2663f0" d="M256.34,297.094c-12.855,0-23.346,10.48-23.346,23.326c0,12.854,10.491,23.346,23.346,23.346 c12.836,0,23.326-10.491,23.326-23.346C279.666,307.574,269.176,297.094,256.34,297.094z M256.351,366.686 c-25.477,0-46.267-20.8-46.267-46.266c0-25.478,20.79-46.236,46.267-46.236c25.437,0,46.226,20.759,46.226,46.236 C302.576,345.886,281.787,366.686,256.351,366.686z"/><path fill="#4a78ff" d="M343.939,295.5c1.561,4.31,2.801,8.77,3.721,13.35c-9.301,0.9-16.561,8.721-16.561,18.23 c0,9.54,7.26,17.36,16.561,18.26c-2.43,12.15-7.2,23.45-13.86,33.41c-7.19-5.91-17.87-5.52-24.59,1.23 c-6.739,6.72-7.13,17.39-1.2,24.59c-9.949,6.66-21.26,11.42-33.43,13.85c-0.9-9.29-8.73-16.55-18.24-16.55 c-9.53,0-17.36,7.26-18.26,16.55c-12.14-2.43-23.45-7.189-33.41-13.85c5.91-7.2,5.52-17.87-1.23-24.59 c-6.71-6.75-17.39-7.141-24.59-1.23c-6.65-9.96-11.42-21.26-13.85-33.41c9.3-0.899,16.55-8.72,16.55-18.26 c0-9.51-7.25-17.33-16.55-18.23c0.92-4.58,2.16-9.04,3.71-13.35c2.57-7.14,5.99-13.88,10.14-20.09 c7.2,5.939,17.88,5.52,24.59-1.2c6.75-6.72,7.14-17.39,1.23-24.59c9.93-6.66,21.27-11.43,33.41-13.86 c0.9,9.3,8.73,16.56,18.26,16.56c9.51,0,17.34-7.26,18.24-16.56c12.141,2.43,23.48,7.2,33.4,13.86 c-5.9,7.2-5.51,17.87,1.229,24.59c6.72,6.72,17.399,7.14,24.59,1.2C337.95,281.62,341.37,288.36,343.939,295.5z M256.35,274.85 c-25.11,0-45.6,20.46-45.6,45.57c0,25.1,20.49,45.6,45.6,45.6c25.07,0,45.56-20.5,45.56-45.6 C301.91,295.31,281.42,274.85,256.35,274.85z"/><circle cx="440" cy="394.5" r="30" fill="#ff5987"/><path fill="#ff5987" d="M70,139.5c11.05,0,20,8.95,20,20s-8.95,20-20,20s-20-8.95-20-20S58.95,139.5,70,139.5z"/><circle cx="462.5" cy="292" r="7.5" fill="#94d4ff"/><circle cx="422.5" cy="57" r="7.5" fill="#94d4ff"/><circle cx="372.5" cy="437" r="7.5" fill="#94d4ff"/><circle cx="162.5" cy="467" r="7.5" fill="#94d4ff"/><circle cx="152.5" cy="177" r="7.5" fill="#94d4ff"/><circle cx="77.5" cy="57" r="7.5" fill="#94d4ff"/><circle cx="67.5" cy="347" r="7.5" fill="#94d4ff"/><path fill="#21bf77" d="M240,185.5l-90-74.04l90-65.96C240,59.798,240,171.187,240,185.5z"/></svg>