<?xml version="1.0" encoding="utf-8"?>
<!-- Generator: Adobe Illustrator 22.0.1, SVG Export Plug-In . SVG Version: 6.00 Build 0)  -->
<svg version="1.1" id="Layer_1" xmlns="http://www.w3.org/2000/svg" xmlns:xlink="http://www.w3.org/1999/xlink" x="0px" y="0px"
	 viewBox="0 0 68 68" style="enable-background:new 0 0 68 68;" xml:space="preserve">
<style type="text/css">
	.st0{fill:#0F9BE8;}
	.st1{fill:#65B2FF;}
	.st2{fill:#D0F6FF;}
	.st3{fill:#FED110;}
	.st4{fill:#FFFFFF;}
	.st5{fill:#FF3445;}
	.st6{opacity:0.18;fill:#20273A;}
	.st7{fill:#9C68E1;}
	.st8{fill:#B5E237;}
	.st9{fill:#20273A;}
	.st10{fill:#EF223B;}
	.st11{fill:#474F6F;}
	.st12{fill:#313B5A;}
	.st13{opacity:0.12;fill:#20273A;}
	.st14{fill:#1076E5;}
	.st15{fill:#95D600;}
	.st16{opacity:0.1;}
	.st17{fill:#8FC8F5;}
	.st18{fill:#A63914;}
	.st19{fill:#561B0F;}
	.st20{fill:#FFD112;}
	.st21{fill:#FFE955;}
	.st22{opacity:0.13;}
	.st23{fill:#8C4CD1;}
	.st24{fill:#FF9F00;}
	.st25{fill:#ADB5BC;}
	.st26{fill:#E0E1E2;}
	.st27{fill:#C7D9FF;}
	.st28{fill:#E3EBF8;}
	.st29{opacity:0.15;}
	.st30{fill:#0FE1C2;}
	.st31{fill:#66FADE;}
	.st32{fill:#545D7A;}
	.st33{opacity:0.18;}
	.st34{fill:#364D7F;}
	.st35{fill:#4E679B;}
	.st36{fill:#FFC0A4;}
	.st37{fill:#E3835A;}
	.st38{fill:#FFA87A;}
	.st39{opacity:0.19;}
	.st40{fill:#82240B;}
	.st41{opacity:0.15;fill:#20273A;}
	.st42{opacity:0.2;}
	.st43{fill:#DD1436;}
	.st44{opacity:0.14;}
	.st45{opacity:0.2;fill:#FFFFFF;}
	.st46{opacity:0.11;fill:#20273A;}
	.st47{fill:#6E35B8;}
	.st48{opacity:0.2;fill:#20273A;}
	.st49{opacity:0.13;fill:#FFFFFF;}
	.st50{opacity:0.43;fill:#20273A;}
	.st51{opacity:0.16;}
	.st52{opacity:0.11;}
	.st53{opacity:0.23;}
	.st54{fill:#FDC72E;}
	.st55{opacity:0.05;}
	.st56{fill:#FFE386;}
	.st57{opacity:0.1;fill:#20273A;}
	.st58{opacity:0.09;}
	.st59{opacity:0.22;fill:#313B5A;}
	.st60{opacity:0.08;}
	.st61{opacity:0.12;}
</style>
<g>
	<circle class="st30" cx="34" cy="34" r="32"/>
	<path class="st31" d="M61.1400146,17.039978C55.4799805,26.0700073,45.4400024,32.0700073,34,32.0700073
		s-21.4799805-6-27.1400146-15.0300293C12.5100098,8.0100098,22.5599976,2,34,2S55.4899902,8.0100098,61.1400146,17.039978z"/>
	<g>
		<g>
			<path class="st4" d="M48.7378426,13.6913462v38.6173096c0,0.6919823-0.5622787,1.2542648-1.2543526,1.2542648H16.7250633
				c-0.6919842,0-1.2542648-0.5622826-1.2542648-1.2542648V13.6913462c0-0.6919842,0.5622807-1.2542648,1.2542648-1.2542648
				H47.48349C48.1755638,12.4370813,48.7378426,12.999362,48.7378426,13.6913462z"/>
		</g>
		<g>
			<g>
				<path class="st17" d="M29.992218,15.8417377c0,0.2636204-0.2157021,0.4841194-0.4841213,0.4841194h-10.093111
					c-0.2684193,0-0.4841194-0.220499-0.4841194-0.4841194c0-0.2684202,0.2157001-0.4841204,0.4841194-0.4841204h10.093111
					C29.776516,15.3576174,29.992218,15.5733175,29.992218,15.8417377z"/>
			</g>
			<g>
				<path class="st17" d="M23.4717464,18.5425835c0,0.2636223-0.2157001,0.4841213-0.4841194,0.4841213h-3.5726414
					c-0.2684193,0-0.4841194-0.220499-0.4841194-0.4841213c0-0.2684193,0.2157001-0.4841213,0.4841194-0.4841213h3.5726414
					C23.2560463,18.0584621,23.4717464,18.2741642,23.4717464,18.5425835z"/>
			</g>
			<g>
				<path class="st17" d="M26.6063232,18.5425835c0,0.2636223-0.2157021,0.4841213-0.4841213,0.4841213h-1.0518417
					c-0.2684193,0-0.4841194-0.220499-0.4841194-0.4841213c0-0.2684193,0.2157001-0.4841213,0.4841194-0.4841213h1.0518417
					C26.3906212,18.0584621,26.6063232,18.2741642,26.6063232,18.5425835z"/>
			</g>
		</g>
		<g>
			<g>
				<path class="st9" d="M44.378109,41.90168H20.9181519c-0.2060966,0-0.3721886-0.1660919-0.3721886-0.3721886V21.8665791
					c0-0.2060986,0.1660919-0.3721886,0.3721886-0.3721886s0.3721886,0.16609,0.3721886,0.3721886v19.2907238H44.378109
					c0.2060966,0,0.3721886,0.1660919,0.3721886,0.3721886S44.5842056,41.90168,44.378109,41.90168z"/>
			</g>
			<g>
				<path class="st9" d="M42.6262779,42.9879341c-0.1248703,0-0.2461014-0.0618286-0.3164177-0.1757889
					c-0.1078987-0.1745758-0.0545578-0.4049187,0.1200218-0.5128174l1.2414322-0.7698364l-1.2414322-0.7710457
					c-0.1745796-0.1078987-0.2279205-0.3382416-0.1200218-0.5128212c0.109108-0.1757889,0.3406677-0.2254944,0.5128174-0.1200218
					l1.7518311,1.0874672c0.109108,0.067894,0.1757889,0.1879158,0.1757889,0.3164215
					c0,0.1285095-0.0666809,0.2485313-0.1757889,0.3164215l-1.7518311,1.0862541
					C42.760849,42.9697495,42.6941719,42.9879341,42.6262779,42.9879341z"/>
			</g>
			<g>
				<path class="st9" d="M19.8306847,23.9905949c-0.0678921,0-0.1357822-0.0181847-0.1963997-0.0557671
					c-0.1745758-0.1078987-0.2279186-0.3382416-0.1200199-0.5128193l1.0874672-1.7518291
					c0.0678902-0.1091099,0.187912-0.1757889,0.3164196-0.1757889l0,0c0.1285076,0,0.2485294,0.066679,0.3164196,0.1757889
					l1.086256,1.7518291c0.1078968,0.1745777,0.054554,0.4049206-0.1200218,0.5128193
					c-0.1757889,0.1066856-0.4037094,0.0569801-0.5128193-0.1200218l-0.7698345-1.2414341l-0.7710476,1.2414341
					C20.0767899,23.9287663,19.9543438,23.9905949,19.8306847,23.9905949z"/>
			</g>
		</g>
	</g>
	<path class="st17" d="M44.3776436,46.4301491c0,0.2674713-0.2188492,0.4911842-0.4911842,0.4911842H19.3974628
		c-0.272337,0-0.4911842-0.2237129-0.4911842-0.4911842c0-0.2723351,0.2188473-0.4911842,0.4911842-0.4911842h24.4889965
		C44.1587944,45.9389648,44.3776436,46.157814,44.3776436,46.4301491z"/>
	<g>
		<path class="st17" d="M36.7542458,49.397747c0,0.2674675-0.2188492,0.4911842-0.4911842,0.4911842H19.3974628
			c-0.272337,0-0.4911842-0.2237167-0.4911842-0.4911842c0-0.2723351,0.2188473-0.4911842,0.4911842-0.4911842h16.8655987
			C36.5353966,48.9065628,36.7542458,49.125412,36.7542458,49.397747z"/>
	</g>
	<g>
		<path class="st17" d="M40.4511604,49.397747c0,0.2674675-0.2188492,0.4911842-0.491188,0.4911842h-1.583786
			c-0.2723351,0-0.4911842-0.2237167-0.4911842-0.4911842c0-0.2723351,0.2188492-0.4911842,0.4911842-0.4911842h1.583786
			C40.2323112,48.9065628,40.4511604,49.125412,40.4511604,49.397747z"/>
	</g>
	<path class="st42" d="M53.9644165,56.9655418c0,0.5018997-8.7139091,0.9090385-19.459549,0.9090385
		s-19.4595528-0.4071388-19.4595528-0.9090385c0-0.5019379,8.7139082-0.9034615,19.4595528-0.9034615
		S53.9644165,56.463604,53.9644165,56.9655418z"/>
	<g>
		<path class="st15" d="M28.4376793,26.5997295h2.8479671c0.1135693,0,0.205637,0.0920658,0.205637,0.2056351v12.3892689
			c0,0.1135712-0.0920677,0.2056351-0.205637,0.2056351h-2.8479671c-0.1135693,0-0.2056351-0.0920639-0.2056351-0.2056351
			V26.8053646C28.2320442,26.6917953,28.32411,26.5997295,28.4376793,26.5997295z"/>
		<path class="st5" d="M23.2041721,32.2225685h2.8379269c0.1135693,0,0.2056351,0.0920677,0.2056351,0.2056351v6.7664299
			c0,0.1135712-0.0920658,0.2056351-0.2056351,0.2056351h-2.8379269c-0.1135693,0-0.2056351-0.0920639-0.2056351-0.2056351
			v-6.7664299C22.9985371,32.3146362,23.0906029,32.2225685,23.2041721,32.2225685z"/>
		<path class="st7" d="M33.6813545,29.8782883h2.8480911c0.1135712,0,0.2056351,0.0920677,0.2056351,0.205637v9.1107082
			c0,0.1135712-0.0920639,0.2056351-0.2056351,0.2056351h-2.8480911c-0.1135712,0-0.2056351-0.0920639-0.2056351-0.2056351
			v-9.1107082C33.4757195,29.970356,33.5677834,29.8782883,33.6813545,29.8782883z"/>
		<path class="st20" d="M41.9684639,26.8053646v12.3892689c0,0.1135712-0.0920677,0.2056351-0.2056351,0.2056351h-2.8378029
			c-0.1135674,0-0.2056351-0.0920639-0.2056351-0.2056351V26.8053646c0-0.1135693,0.0920677-0.2056351,0.2056351-0.2056351
			h2.8378029C41.8763962,26.5997295,41.9684639,26.6917953,41.9684639,26.8053646z"/>
	</g>
	<g>
		<g>
			<path class="st18" d="M54.686451,51.1473351v2.2060204c0,0.1988449-0.1611977,0.3600426-0.3600426,0.3600426h-12.692482
				c-0.1988487,0-0.3600464-0.1611977-0.3600464-0.3600426v-2.2060204H54.686451z"/>
			<polygon class="st19" points="54.686451,51.1473351 53.4081726,50.0511589 42.5521622,50.0511589 41.27388,51.1473351 			"/>
			<g>
				<rect x="42.5527802" y="48.3411636" class="st18" width="10.8553905" height="1.7099928"/>
			</g>
			<path class="st18" d="M56.0726433,39.4376755l-1.7903595,1.7939568c-0.1722145,0.1722107-0.4520836,0.1722107-0.6207047,0
				l-1.1255379-1.1255417c-0.0672874-0.0672874-0.1585464-0.1050873-0.2537041-0.1050873h-1.5126305
				c-0.1981583,0-0.3587914,0.1606369-0.3587914,0.3587914v1.8570557c0,0.0951576,0.0377998,0.1864166,0.1050873,0.2537041
				l2.5894356,2.5894356c0.3408318,0.3444252,0.3408318,0.9005699,0,1.2449951l-1.4279823,1.4279785H44.189537l-0.0718307-2.6299629
				l-1.0883255-0.6851768c-0.4860611-0.3060074-0.7809601-0.8401451-0.7809601-1.4145126v-5.4743385
				c0-3.9754333,3.6274147-6.9570045,7.5274277-6.1891441l2.9241982,0.5741005
				c0.4161644,0.0825157,0.6493454,0.5273247,0.4771309,0.9148483l-0.2259941,0.5094528l-0.0035934,0.0071831l-0.4539223,1.02528
				c-0.1610374,0.3637428-0.0816422,0.7890778,0.1997719,1.0702324l3.3792038,3.376049
				C56.2448578,38.9891891,56.2448578,39.2690544,56.0726433,39.4376755z"/>
			<path class="st19" d="M53.4081726,48.3411636l-0.6599884-0.7674446
				c-0.0617256-0.0717773-0.1516876-0.1130638-0.2463531-0.1130638h-9.0413551
				c-0.0958061,0-0.1867256,0.0422821-0.2484627,0.1155396l-0.6446533,0.7649689H53.4081726z"/>
			<path class="st19" d="M53.1771774,32.8287773l-0.2259941,0.5094528l-0.0035934,0.0071831H48.451931
				c-2.3931084,0-4.3342247,1.9374352-4.3342247,4.3342247v7.4233627l-1.0883255-0.6851768
				c-0.4860611-0.3060074-0.7809601-0.8401451-0.7809601-1.4145126v-5.4743385c0-3.9754333,3.6274147-6.9570045,7.5274277-6.1891441
				l2.9241982,0.5741005C53.1162109,31.9964447,53.3493919,32.4412537,53.1771774,32.8287773z"/>
			<path class="st19" d="M52.3310661,36.4914322c0,0.2725983-0.2224922,0.4915886-0.4915886,0.4915886
				c-0.2725945,0-0.4950867-0.2189903-0.4950867-0.4915886c0-0.2725945,0.2224922-0.4915848,0.4950867-0.4915848
				C52.1085739,35.9998474,52.3310661,36.2188377,52.3310661,36.4914322z"/>
		</g>
	</g>
</g>
</svg>