<svg xmlns="http://www.w3.org/2000/svg" viewBox="0 0 64 64" id="communication">
  <path fill="#6c6ca6" d="M18.65 15.03c-5.71 0-10.37 4.66-10.37 10.38s4.66 10.37 10.37 10.37c5.72 0 10.38-4.65 10.38-10.37s-4.66-10.38-10.38-10.38zm0 18.82c-4.65 0-8.43-3.78-8.43-8.43s3.78-8.44 8.43-8.44 8.44 3.79 8.44 8.44-3.79 8.43-8.44 8.43z"></path>
  <path fill="#fee6ab" d="M27.09 25.42c0 4.65-3.79 8.43-8.44 8.43s-8.43-3.78-8.43-8.43 3.78-8.44 8.43-8.44 8.44 3.78 8.44 8.44z"></path>
  <path fill="#f1d39a" d="M18.65 16.98c-4.65 0-8.43 3.79-8.43 8.44s3.78 8.43 8.43 8.43 8.44-3.78 8.44-8.43-3.79-8.44-8.44-8.44zm0 13.93c-3.03 0-5.5-2.46-5.5-5.49s2.47-5.51 5.5-5.51 5.5 2.48 5.5 5.51-2.47 5.49-5.5 5.49z"></path>
  <path fill="#6c6ca6" d="M24.78 38.22H13.64C6.12 38.22 0 44.35 0 51.87v9.24c0 .54.44.97.97.97h36.48c.54 0 .97-.43.97-.97v-9.24c0-7.52-6.12-13.65-13.64-13.65zm11.7 21.91h-5.34v-7.61a.97.97 0 0 0-1.94 0v7.61H9.23v-7.61a.97.97 0 0 0-1.94 0v7.61H1.94v-8.27c0-6.45 5.25-11.7 11.7-11.7h11.14c6.45 0 11.7 5.25 11.7 11.7v8.27z"></path>
  <path fill="#70b8e6" d="M36.48 51.87v8.27h-5.34v-7.61a.97.97 0 0 0-1.94 0v7.61H9.23v-7.61a.97.97 0 0 0-1.94 0v7.61H1.94v-8.27c0-6.45 5.25-11.7 11.7-11.7h11.14c6.45 0 11.7 5.25 11.7 11.7z"></path>
  <path fill="#4fa0d8" d="M16.04 40.17c-3.66 0-6.65 5.25-6.65 11.7v8.27h-.16v-7.61a.97.97 0 0 0-1.94 0v7.61H1.94v-8.27c0-6.45 5.25-11.7 11.7-11.7h2.4zm20.44 11.7v8.27h-5.34v-7.61a.97.97 0 0 0-1.94 0v7.61h-.17v-8.27c0-6.45-2.99-11.7-6.65-11.7h2.4c6.45 0 11.7 5.25 11.7 11.7z"></path>
  <path fill="#6c6ca6" d="M59.11 1.92H37.89c-2.7 0-4.89 2.22-4.89 4.93v12.42c0 2.42 1.73 4.43 4 4.85l.19 4.04c.01.35.22.67.54.82.14.07.28.1.43.1.19 0 .39-.06.56-.18l6.59-4.69h13.8c2.7 0 4.89-2.22 4.89-4.94V6.86c0-2.72-2.19-4.94-4.89-4.94zm2.95 17.35c0 1.65-1.32 3-2.95 3H45c-.2 0-.4.06-.56.18l-5.4 3.84-.14-3.1c-.03-.52-.49-.92-1.01-.92-1.63 0-2.95-1.35-2.95-3V6.86c0-1.65 1.32-2.99 2.95-2.99h21.22c1.63 0 2.95 1.34 2.95 2.99v12.41z"></path>
  <path fill="#cbeafb" d="M59.11 3.87H37.89c-1.63 0-2.95 1.34-2.95 2.99v12.42c0 1.65 1.32 3 2.95 3 .52 0 .98.4 1.01.92l.14 3.1 5.4-3.84c.16-.12.36-.18.56-.18h14.11c1.63 0 2.95-1.35 2.95-3V6.86c0-1.66-1.32-2.99-2.95-2.99zm-4.8 13.07H42.69a.97.97 0 0 1 0-1.94h11.62a.97.97 0 0 1 0 1.94zm0-5.8H42.69a.97.97 0 0 1 0-1.94h11.62c.54 0 .97.43.97.97 0 .52-.43.97-.97.97z"></path>
  <path fill="#bbe1f4" d="M59.11 3.87H37.89c-1.63 0-2.95 1.34-2.95 2.99v12.42c0 1.65 1.32 3 2.95 3 .52 0 .98.4 1.01.92l.14 3.1 5.4-3.84c.16-.12.36-.18.56-.18h14.11c1.63 0 2.95-1.35 2.95-3V6.86c0-1.66-1.32-2.99-2.95-2.99zm-.61 13.3c0 1.22-.97 2.22-2.18 2.22h-10.4c-.15 0-.29.04-.41.13l-3.99 2.83-.11-2.28c-.02-.38-.36-.67-.74-.67-1.21 0-2.18-1-2.18-2.22V8.01c0-1.21.97-2.2 2.18-2.2h15.64c1.21 0 2.18.99 2.18 2.2v9.16z"></path>
  <path fill="#6c6ca6" d="M55.28 10.16c0 .53-.43.97-.97.97H42.69a.97.97 0 0 1 0-1.94h11.62c.54 0 .97.44.97.97zm0 5.82c0 .54-.43.97-.97.97H42.69a.97.97 0 0 1 0-1.94h11.62c.54 0 .97.43.97.97z"></path>
</svg>
