<svg xmlns="http://www.w3.org/2000/svg"  viewBox="0 0 100 100" width="50px" height="50px"><path fill="#0056d3" d="M88.653,59.239c-0.929,0-1.681-0.752-1.681-1.681v-1.681h-38.79c-0.929,0-1.681-0.751-1.681-1.68 c0-0.929,0.752-1.681,1.681-1.681h40.471c0.929,0,1.681,0.752,1.681,1.681v3.361C90.333,58.487,89.582,59.239,88.653,59.239z"/><path fill="#0056d3" d="M11.347,59.239c-0.929,0-1.68-0.752-1.68-1.681v-3.361c0-0.929,0.751-1.681,1.68-1.681h16.806 c0.929,0,1.681,0.752,1.681,1.681c0,0.929-0.752,1.68-1.681,1.68H13.028v1.681C13.028,58.487,12.276,59.239,11.347,59.239z"/><path fill="#0ab5fd" d="M14.534,79.405c-2.683,0-4.867-2.262-4.867-5.041v-6.723c0-2.78,2.184-5.041,4.867-5.041 c2.685,0,4.87,2.262,4.87,5.041c0,0.929-0.752,1.681-1.681,1.681c-0.929,0-1.681-0.752-1.681-1.681 c0-0.927-0.676-1.68-1.508-1.68c-0.83,0-1.506,0.753-1.506,1.68v6.723c0,0.927,0.676,1.68,1.506,1.68 c0.832,0,1.508-0.753,1.508-1.68c0-0.929,0.752-1.681,1.681-1.681c0.929,0,1.681,0.752,1.681,1.681 C19.404,77.144,17.219,79.405,14.534,79.405z"/><path fill="#0ab5fd" d="M28.084,79.405c-3.124,0-5.666-2.542-5.666-5.665v-5.475c0-3.123,2.542-5.665,5.666-5.665 c3.123,0,5.665,2.542,5.665,5.665v5.475C33.749,76.863,31.207,79.405,28.084,79.405z M28.084,65.961 c-1.271,0-2.305,1.034-2.305,2.304v5.475c0,1.27,1.034,2.304,2.305,2.304c1.27,0,2.304-1.034,2.304-2.304v-5.475 C30.388,66.995,29.354,65.961,28.084,65.961z"/><path fill="#0ab5fd" d="M44.82,79.405c-0.639,0-1.236-0.364-1.518-0.96l-3.177-6.7v5.979c0,0.929-0.752,1.68-1.681,1.68 c-0.929,0-1.68-0.751-1.68-1.68V64.28c0-0.786,0.544-1.467,1.311-1.639c0.773-0.175,1.551,0.21,1.887,0.919l3.177,6.7V64.28 c0-0.929,0.752-1.68,1.681-1.68c0.929,0,1.68,0.751,1.68,1.68v13.445c0,0.786-0.544,1.467-1.311,1.64 C45.066,79.392,44.942,79.405,44.82,79.405z"/><path fill="#0ab5fd" d="M65.54,72.683h-4.781c-0.929,0-1.681-0.752-1.681-1.681V64.28c0-0.929,0.752-1.68,1.681-1.68 h4.781c0.929,0,1.681,0.751,1.681,1.68c0,0.929-0.752,1.681-1.681,1.681h-3.1v3.361h3.1c0.929,0,1.681,0.751,1.681,1.68 C67.221,71.931,66.469,72.683,65.54,72.683z"/><path fill="#0ab5fd" d="M65.54,79.405h-4.781c-0.929,0-1.681-0.751-1.681-1.68v-6.723c0-0.929,0.752-1.68,1.681-1.68 c0.929,0,1.68,0.751,1.68,1.68v5.042h3.1c0.929,0,1.681,0.752,1.681,1.681C67.221,78.654,66.469,79.405,65.54,79.405z"/><path fill="#0ab5fd" d="M52.79,79.405c-0.929,0-1.681-0.751-1.681-1.68V64.28c0-0.929,0.752-1.68,1.681-1.68 c0.929,0,1.68,0.751,1.68,1.68v13.445C54.47,78.654,53.719,79.405,52.79,79.405z"/><path fill="#0ab5fd" d="M55.179,65.961h-4.781c-0.929,0-1.68-0.752-1.68-1.681c0-0.929,0.751-1.68,1.68-1.68h4.781 c0.929,0,1.681,0.751,1.681,1.68C56.86,65.209,56.108,65.961,55.179,65.961z"/><path fill="#0ab5fd" d="M78.292,79.405c-0.638,0-1.236-0.364-1.518-0.96l-3.177-6.7v5.979c0,0.929-0.751,1.68-1.68,1.68 c-0.929,0-1.681-0.751-1.681-1.68V64.28c0-0.786,0.545-1.467,1.311-1.639c0.772-0.175,1.553,0.21,1.888,0.919l3.177,6.7V64.28 c0-0.929,0.751-1.68,1.68-1.68c0.929,0,1.681,0.751,1.681,1.68v13.445c0,0.786-0.545,1.467-1.311,1.64 C78.538,79.392,78.413,79.405,78.292,79.405z"/><path fill="#0ab5fd" d="M86.261,79.405c-0.929,0-1.68-0.751-1.68-1.68V64.28c0-0.929,0.751-1.68,1.68-1.68 c0.929,0,1.681,0.751,1.681,1.68v13.445C87.942,78.654,87.19,79.405,86.261,79.405z"/><path fill="#0ab5fd" d="M88.653,65.961H83.87c-0.929,0-1.681-0.752-1.681-1.681c0-0.929,0.752-1.68,1.681-1.68h4.782 c0.929,0,1.681,0.751,1.681,1.68C90.333,65.209,89.582,65.961,88.653,65.961z"/><polygon fill="#fff" points="29.204,53.775 41.088,49.021 33.957,41.891"/><path fill="#fd3e5f" d="M29.205,55.455c-0.437,0-0.867-0.17-1.189-0.492c-0.476-0.474-0.622-1.188-0.372-1.812 l4.753-11.884c0.21-0.525,0.67-0.909,1.223-1.023c0.562-0.113,1.128,0.059,1.527,0.458l7.129,7.129 c0.399,0.399,0.571,0.973,0.458,1.526c-0.113,0.553-0.497,1.013-1.023,1.223l-11.882,4.755 C29.627,55.416,29.415,55.455,29.205,55.455z M34.571,44.882l-2.35,5.877l5.876-2.352L34.571,44.882z"/><rect width="10.084" height="42.014" x="47.335" y="9.595" fill="#fdb2b0" transform="rotate(-134.999 52.377 30.602)"/><path fill="#fd3e5f" d="M41.093,50.701c-0.454,0-0.875-0.185-1.193-0.487l-7.126-7.142c-0.657-0.655-0.657-1.715,0-2.37 l16.636-16.638v-0.017c0.64-0.622,1.748-0.604,2.37,0.017c0.32,0.32,0.487,0.74,0.487,1.195c0,0.437-0.167,0.873-0.487,1.175 L36.337,41.895l4.738,4.756l27.343-27.342l-4.756-4.756l-2.369,2.386c-0.639,0.639-1.748,0.639-2.387,0 c-0.655-0.656-0.655-1.731,0-2.386l3.563-3.563c0.639-0.639,1.748-0.639,2.386,0l7.126,7.126 c0.318,0.318,0.487,0.755,0.487,1.193c0,0.453-0.169,0.873-0.487,1.194L42.268,50.214C41.95,50.516,41.53,50.701,41.093,50.701z M55.343,22.183c-0.453,0-0.873-0.169-1.193-0.487c-0.319-0.32-0.488-0.74-0.488-1.193c0-0.455,0.169-0.875,0.488-1.194 c0.638-0.622,1.747-0.622,2.386,0c0.657,0.655,0.657,1.73,0,2.386C56.218,22.014,55.798,22.183,55.343,22.183z"/><g><path fill="#0056d3" d="M88.653,89.489H11.347c-0.929,0-1.68-0.752-1.68-1.681v-3.361c0-0.929,0.751-1.681,1.68-1.681 c0.929,0,1.681,0.752,1.681,1.681v1.68h73.944v-1.68c0-0.929,0.752-1.681,1.681-1.681c0.929,0,1.681,0.752,1.681,1.681v3.361 C90.333,88.737,89.582,89.489,88.653,89.489z"/></g></svg>