<svg xmlns="http://www.w3.org/2000/svg" width="512" height="512" enable-background="new 0 0 512 512" viewBox="0 0 512 512" id="decision-making">
  <rect width="175" height="13.799" x="168.085" y="207.718" fill="#1DBBB2" transform="rotate(89.983 255.585 214.617)"></rect>
  <path fill="#F8A496" d="M422.417,452.77c0,27.898-22.082,50.6-49.703,51.703v0.047h-0.943c-0.393,0-0.783,0.068-1.174,0.068
			s-0.781-0.068-1.172-0.068H141.839v-0.047c-0.76,0.025-1.518,0.115-2.299,0.115c-28.613,0-51.82-23.207-51.82-51.818
			c0-24.082,16.424-44.275,38.688-50.094c2.119-0.553,4.307-0.979,6.537-1.258c3.031-0.385,5.295-2.984,5.348-6.035
			c0.014-0.92,0.039-1.719,0.074-2.184v-0.023c2.393-37.238,33.373-66.723,71.23-66.723c13.914,0,26.887,3.979,37.857,10.855
			c0.891,0.561,1.764,1.137,2.625,1.732c2.957,2.049,6.848,2.17,9.811,0.129c0.453-0.313,0.906-0.619,1.365-0.918
			c11.27-7.475,24.771-11.799,39.285-11.799c36.914,0,67.273,28.037,70.979,63.963c0,0,0,0,0,0.021
			c0.111,1.102,0.197,3.143,0.256,5.156c0.08,2.949,2.281,5.436,5.209,5.795c1.363,0.166,2.711,0.389,4.033,0.664
			C404.636,406.861,422.417,427.721,422.417,452.77z"></path>
  <path fill="#DF5030" d="M210.241 504.52h-13.824c-1.908-17.271-17.088-23.482-17.801-23.76l-6.371-2.531 4.924-12.787 6.391 2.416C192.554 471.285 208.608 483.105 210.241 504.52zM328.601 478.32l-6.418 2.439c-.852.344-15.846 6.555-17.779 23.76h-13.824c1.635-21.414 17.689-33.234 26.682-36.662l6.438-2.438L328.601 478.32zM311.991 364.955l-9.451 10.051-5.014-4.738c-13.039-12.258-35.305-3.404-35.535-3.313l-.736.299v100.488h-13.801v-73.025c-5.012-1.654-23.092-6.67-34.201 3.795l-5.012 4.717-9.477-10.029 5.037-4.738c14.119-13.316 33.602-10.717 43.652-8.119v-43.033c.891.561 1.764 1.137 2.625 1.732 2.957 2.049 6.848 2.17 9.811.129.453-.313.906-.619 1.365-.918v14.42c9.199-2.689 30.566-6.738 45.725 7.545L311.991 364.955zM371.032 447.502l5.59 4.049-8.051 11.178-5.611-4.025c-15.018-10.834-17.18-24.104-16.719-32.545-4.463.852-9.408 1.355-14.883 1.355h-6.9v-13.799h6.9c26.266 0 36.318-13.27 40.16-23.277.111 1.1.197 3.143.256 5.154.08 2.951 2.281 5.438 5.211 5.797 1.361.166 2.709.389 4.031.664-3.934 7.063-10.168 14.309-20.08 19.252l-.482 2.299C359.327 428.871 359.212 438.992 371.032 447.502zM170.083 443.82l-13.641 1.98-.988-6.832c-.805-5.59-2.482-10.418-4.691-14.582-7.129 3.703-15.984 10.305-17.941 20.746l-1.262 6.785-13.572-2.553 1.289-6.785c2.207-11.799 10.373-22.15 23.09-29.348-5.334-5.152-11.246-8.512-15.959-10.557 2.119-.553 4.307-.979 6.537-1.258 3.031-.385 5.295-2.984 5.348-6.035.014-.92.039-1.719.074-2.184 12.396 6.877 27.277 19.963 30.727 43.791L170.083 443.82z"></path>
  <path fill="#FBAD18" d="M292.95,41.969C290.327,23.568,274.479,9.4,255.39,9.4c-20.928,0-37.949,17.018-37.949,37.949
			c0,20.93,17.021,37.949,37.949,37.949c18.01,0,33.166-12.627,36.984-29.531c0.643-2.715,0.967-5.52,0.967-8.418
			C293.341,45.533,293.202,43.715,292.95,41.969z M255.39,71.5c-13.318,0-24.148-10.834-24.148-24.15s10.83-24.15,24.148-24.15
			s24.15,10.834,24.15,24.15S268.708,71.5,255.39,71.5z"></path>
  <path fill="#FFF" d="M279.54,47.35c0,13.316-10.832,24.15-24.15,24.15s-24.148-10.834-24.148-24.15s10.83-24.15,24.148-24.15
			S279.54,34.033,279.54,47.35z"></path>
  <path fill="#C3DD90" d="M503.976,164.855c-2.625-18.398-18.471-32.568-37.561-32.568c-20.928,0-37.949,17.021-37.949,37.951
			s17.021,37.949,37.949,37.949c18.01,0,33.166-12.627,36.984-29.531c0.643-2.713,0.967-5.521,0.967-8.418
			C504.366,168.422,504.226,166.604,503.976,164.855z M466.415,194.389c-13.318,0-24.15-10.834-24.15-24.15
			s10.832-24.15,24.15-24.15s24.15,10.834,24.15,24.15S479.733,194.389,466.415,194.389z"></path>
  <path fill="#FFF" d="M490.565,170.238c0,13.316-10.832,24.15-24.15,24.15s-24.15-10.834-24.15-24.15s10.832-24.15,24.15-24.15
			S490.565,156.922,490.565,170.238z"></path>
  <path fill="#C3DD90" d="M83.142,164.971c-2.621-18.4-18.467-32.568-37.559-32.568c-20.93,0-37.949,17.021-37.949,37.951
			s17.02,37.949,37.949,37.949c18.01,0,33.166-12.625,36.984-29.531c0.645-2.713,0.965-5.52,0.965-8.418
			C83.532,168.535,83.396,166.719,83.142,164.971z M45.583,194.502c-13.314,0-24.15-10.832-24.15-24.148
			c0-13.318,10.836-24.15,24.15-24.15c13.318,0,24.15,10.832,24.15,24.15C69.733,183.67,58.901,194.502,45.583,194.502z"></path>
  <path fill="#FFF" d="M69.733,170.354c0,13.316-10.832,24.148-24.15,24.148c-13.314,0-24.15-10.832-24.15-24.148
			c0-13.318,10.836-24.15,24.15-24.15C58.901,146.203,69.733,157.035,69.733,170.354z"></path>
  <path fill="#1DBBB2" d="M255.417,59.996c-1.576,0-3.16-0.537-4.455-1.637l-14.945-12.656l8.916-10.529l9.693,8.209l30.643-35.971
		l10.506,8.949L260.673,57.57C259.308,59.172,257.366,59.996,255.417,59.996z"></path>
  <path fill="#FBAD18" d="M298.009,266.701l-14.996,25.85l11.914,6.926l15.02-25.854L298.009,266.701z M319.952,228.889
		l-15.02,25.875l11.936,6.922l15.02-25.875L319.952,228.889z M341.87,191.1l-14.996,25.854l11.936,6.922l14.998-25.854L341.87,191.1
		z M362.454,162.486c-2.463,0-4.74,1.314-5.977,3.445l-7.66,13.23l11.936,6.922l4.025-6.945l0,0
		c1.025-1.766,2.912-2.852,4.953-2.852h7.33v-13.801H362.454z"></path>
  <rect width="13.801" height="13.801" x="248.647" y="133.318" fill="#008E8C"></rect>
  <path fill="#F48120" d="M376.554,162.486v13.801h-6.83c-2.037,0-3.922,1.082-4.949,2.842l-2.021,3.463v-20.105H376.554z"></path>
  <path fill="#1DBBB2" d="M274.421,121.691l-13.531-14.393c-1.287-1.371-3.078-2.154-4.957-2.176c-1.928-0.063-3.689,0.732-5,2.074
		l-14.088,14.393c-1.943,1.986-2.508,4.941-1.432,7.502s3.584,4.225,6.361,4.225h27.621c2.75,0,5.24-1.635,6.334-4.162
		C276.821,126.627,276.306,123.695,274.421,121.691z"></path>
  <path fill="#FBAD18" d="M388.188 187.689l14.391-13.531c1.371-1.287 2.154-3.078 2.176-4.957.064-1.928-.73-3.689-2.074-5l-14.393-14.088c-1.986-1.943-4.941-2.508-7.502-1.432s-4.227 3.584-4.227 6.361v27.621c0 2.75 1.637 5.24 4.162 6.334C383.249 190.09 386.183 189.574 388.188 187.689zM196.71 273.623l15.016 25.854 11.914-6.926-14.994-25.85L196.71 273.623zM174.765 235.811l15.021 25.875 11.936-6.922-15.02-25.875L174.765 235.811zM152.847 198.021l14.996 25.854 11.938-6.922L164.782 191.1 152.847 198.021zM129.593 162.486v13.801h7.33c2.041 0 3.928 1.086 4.953 2.852l0 0 4.023 6.945 11.939-6.922-7.662-13.23c-1.236-2.131-3.514-3.445-5.977-3.445H129.593z"></path>
  <path fill="#F48120" d="M130.099,162.486v13.801h6.832c2.035,0,3.92,1.082,4.947,2.842l2.021,3.463v-20.105H130.099z"></path>
  <path fill="#FBAD18" d="M118.466,187.689l-14.393-13.531c-1.369-1.287-2.154-3.078-2.174-4.957c-0.063-1.928,0.732-3.689,2.072-5
		l14.395-14.088c1.984-1.943,4.941-2.508,7.502-1.432s4.225,3.584,4.225,6.361v27.621c0,2.75-1.637,5.24-4.162,6.334
		C123.403,190.09,120.47,189.574,118.466,187.689z"></path>
  <polygon fill="#1DBBB2" points="489.296 153.824 479.005 144.629 466.321 158.826 453.638 144.629 443.347 153.824 457.067 169.186 443.347 184.543 453.638 193.738 466.321 179.541 479.005 193.738 489.296 184.543 475.575 169.186"></polygon>
  <polygon fill="#1DBBB2" points="68.556 153.824 58.265 144.629 45.583 158.826 32.899 144.629 22.608 153.824 36.329 169.186 22.608 184.543 32.899 193.738 45.583 179.541 58.265 193.738 68.556 184.543 54.835 169.186"></polygon>
</svg>
