<svg xmlns="http://www.w3.org/2000/svg" viewBox="0 0 50 50" id="happy-young-boy">
  <circle cx="24.4" cy="22.6" r="16.9" fill="#66c4a6"></circle>
  <path fill="#f8ad9e" d="M27.3 24.7s-.5 4.2.8 5.6c0 0 1.4.9 3 1.1 0 0 7.9 1.6 7.8 10.4H10.1S9 33.7 16.8 32c0 0 4.7-.9 4.7-2l.3-5.3h5.5z"></path>
  <path fill="#62abd2" d="M31.2 31.3c-1-.1-1.8-.5-2.4-.7-3.4 2.1-6.6 1.2-8.4.3-1.4.6-3.6 1-3.6 1-7.8 1.7-6.7 9.8-6.7 9.8h28.8c.2-8.8-7.7-10.4-7.7-10.4z"></path>
  <path fill="#e98b4f" d="M25.8 41.8H39c.2-8.9-7.8-10.4-7.8-10.4-.6-.1-1.1-.2-1.6-.4l-3.8 10.8z"></path>
  <path fill="#faa859" d="M26.1 41.8h12.8c.1-5.6-3-8.3-5.4-9.5l-7.4 9.5z"></path>
  <path fill="#e98b4f" d="M23 41.8H9.8c-.2-8.9 7.8-10.4 7.8-10.4.6-.1 1.1-.2 1.6-.4L23 41.8z"></path>
  <path fill="#faa859" d="M22.6 41.8H9.8c-.1-5.6 3-8.3 5.4-9.5l7.4 9.5z"></path>
  <path fill="#e28b83" d="m21.8 24.7-.3 5c1.5.6 3.5.5 5.9-1.4-.3-1.7 0-3.7 0-3.7l-5.6.1zM19 20.1c0-.5-.3-1-.2-1.4h-.2c-.8 0-1.4.7-1.4 1.5s.6 1.5 1.4 1.5h.2c.2-.5.2-1.1.2-1.6zm11.7-1.4h-.2c.1.5-.1 1-.1 1.5s0 1 .1 1.5h.3c.8 0 1.4-.7 1.4-1.5-.1-.9-.7-1.5-1.5-1.5z"></path>
  <ellipse cx="24.7" cy="19.4" fill="#f8ad9e" rx="6.1" ry="8.1"></ellipse>
  <path fill="#372737" d="M26.2 17.4s1.1-2.1 3.1-.4c0 0 .1.4-.4.4-.1 0-1.2-1-2.7 0zm-3.3 0s-1.1-2.1-3.1-.4c0 0-.1.4.4.4 0 0 1.2-1 2.7 0z"></path>
  <ellipse cx="21.7" cy="19.2" fill="#372737" rx=".4" ry=".7"></ellipse>
  <ellipse cx="27.4" cy="19.2" fill="#372737" rx=".4" ry=".7"></ellipse>
  <path fill="#aa6153" d="M24.9 20.6s.6.5 1 .5c.4-.1-.2 1.4-.6 1.5 0 0-.3.1-.5 0 0 0 .8-.7.9-1.1 0-.1-.5-.6-.8-.9z"></path>
  <path fill="#372737" d="M21.5 23.4h6.3s-3.4 5.3-6.3 0z"></path>
  <path fill="#fff" d="M24.7 24.1c1.5 0 2.7-.3 3.1-.7h-6.1c.3.4 1.5.7 3 .7z"></path>
  <path fill="#f05352" d="M24.4 24.7c-.7 0-1.3.1-1.8.3 1.4 1.4 2.8.8 3.8 0-.6-.2-1.2-.3-2-.3z"></path>
  <circle cx="21.6" cy="18.9" r=".1" fill="#fff"></circle>
  <circle cx="27.3" cy="18.9" r=".1" fill="#fff"></circle>
  <path fill="#b77a48" d="M33.7 41.8c-.2-2.2-.5-4.9-1.1-6v6h1.1zm-17.9 0v-6c-.6 1.1-.9 3.8-1.1 6h1.1z"></path>
  <path fill="#684d67" d="M29.7 15.3s-4.9 1.4-9.1-1.5c0 0 .4 3.1-1.7 3v3.9l-.4.7-1.1-4.2s-1.5-4.5 1.5-4.5c0 0-.5-2.7 3.3-2.5 0 0 2.7.1 3.7-1.4 0 0 3-1.3 3.1 1.3 0 0 4.3.4 2.3 3.7 0 0 .4 1.5.1 3.2l-.4 3.9-.6-.9s.3-3.4-.7-4.7z"></path>
  <path fill="#382837" d="M31.3 13.8s.4 1.5.1 3.2l-.4 3.9-.6-.9s.4-3.4-.7-4.7c1-.5 1.6-1.5 1.6-1.5zm-13.9 3.4s-1.5-4.5 1.5-4.5c0 0 .6.8 1.7 1.1 0 0 .1.5 0 1.1 0 .2-.1.4-.1.6 0 .1-.1.2-.1.3-.1.1-.1.3-.2.4-.3.4-.7.7-1.3.7v3.9l-.4.7-1.1-4.3z"></path>
  <path fill="#71393a" d="M23.6 19.4s1.1-.5 2 0v.3s-.8-.6-2 0v-.3zM29.9 19.2l1.3-.5-1.6 1.1zM19.5 19.2l-1.4-.5 1.7 1.1z"></path>
  <circle cx="27.7" cy="19.4" r="2.2" fill="#71393a"></circle>
  <circle cx="27.7" cy="19.4" r="2" fill="#372737"></circle>
  <path fill="#5f4560" d="M29.7 19.1c0-.1-.1-.2-.1-.4l-2.3 2.1 2.4-1.7zm-.7-1.2c-.8.8-2 1.9-2.9 2.8.1.2.3.3.5.5l2.8-2.8c-.1-.2-.2-.4-.4-.5zm-3.2 2.3 1.9-2-2 1.6c.1.2.1.3.1.4z"></path>
  <circle cx="21.6" cy="19.4" r="2.2" fill="#71393a"></circle>
  <circle cx="21.6" cy="19.4" r="2" fill="#372737"></circle>
  <path fill="#5f4560" d="M23.6 19.1c0-.1-.1-.2-.1-.4l-2.3 2.1 2.4-1.7zm-.7-1.2c-.8.8-2 1.9-2.9 2.8.1.2.3.3.5.5l2.8-2.8c-.1-.2-.2-.4-.4-.5zm-3.2 2.3 1.9-2-2 1.6c.1.2.1.3.1.4z"></path>
  <circle cx="1696.1" cy="697.4" r="209.7" fill="#66c4a6"></circle>
  <path fill="#342933" d="M1553.4 889.5c-11.3-10.4-19.4-24.1-23.1-39-2.3-9.2-2.8-19.1.9-27.9 3.6-8.7 12.2-15.8 21.6-15.7-7.4-10.1-15-20.4-19.2-32.2-4.2-11.8-4.5-25.6 2-36.3 2.3-3.7 5.2-6.9 7.3-10.7 9-16.2-.6-35.8-2.5-54.2-1.7-16.7 5.5-36 21.3-41.8 2.6-.9 5.5-1.6 7.1-3.9 1.5-2.1 1.4-5 1.4-7.6-.4-14.8 3.2-30.1 12.1-41.9 8.9-11.9 23.6-19.8 38.3-18.7 15.8-20.5 46.3-27.9 69.8-17 16.2-13.2 41-14.4 58.5-3 4.5 3 8.6 6.7 13.7 8.6 5.4 2.1 11.3 1.9 16.9 2.9 16.9 2.9 31.2 17.1 34.4 34 .5 2.9.8 6 2.3 8.6 1.6 2.9 4.6 4.7 7.3 6.6 8.6 5.8 16.9 12.8 21.4 22.2 4.6 9.4 4.7 21.4-2 29.5 8.8 7.6 17.3 16 22.2 26.5 4.9 10.5 5.7 23.6-.5 33.4-1.7 2.7-3.9 5.3-3.8 8.4.1 2.9 2.1 5.4 3.8 7.7 7.4 9.9 11.5 22.6 9.7 34.8s-10.2 23.7-21.9 27.7c7.1 8.9 14.6 18.4 15.9 29.7 1.3 11.3-6.3 24.4-17.6 24.5 9.2 13.1 4.5 32.4-6.9 43.7s-27.6 16.1-43.4 18.8c-63.6 10.8-128.1-7.4-191.3-20.5-18.5-3.8-39-7-55.2 2.7"></path>
  <path fill="#291f27" d="M1620 693c-10 3-19.7 9-24.2 18.4s-2.2 22.5 6.9 27.5c-9.6 5-12.8 19.1-6.5 27.7.7 1 1.6 2 1.7 3.3.2 2.4-2.2 4-4.1 5.4-10.9 7.7-13.1 25.1-4.5 35.3-5.6 0-6.7 7.9-5.6 13.4 2.1 11.4 5.7 23.4 14.8 30.5 10.5 8.2 25.4 7.5 38.5 5 20.3-3.8 41.8-12.5 50.9-31 3.1-6.4 4.5-13.4 5.6-20.4 3-18.4 4.2-37.2 3.8-55.8-.2-7.6-.7-15.3-2.9-22.5-4.2-13.5-14.5-24.6-26.9-31.3-12.4-6.7-26.9-9.1-40.9-8.5"></path>
  <path fill="#291f27" d="M1765.4 668.2c6.8-2.5 14.3 2.2 18.3 8.2 4 6 5.7 13.2 8.9 19.7s8.8 12.7 16 13c1.3.1 2.8 0 3.9.7 2 1.3 1.8 4.4.3 6.2s-3.7 2.8-5.7 4.2c-5.8 3.8-9.1 11-8.5 17.9.7 6.9 5.3 13.3 11.7 16-7 2.9-12.1 9.8-13 17.3s2.6 15.3 8.7 19.8c-6.1.6-12 4.9-13.6 10.8-1.6 5.9 1.9 13.1 7.9 14.6-7.9 3-14.7 8.9-18.8 16.3-4.5 8.3-6.3 19-14.5 23.7-7.1 4.1-16.3 1.7-23.6-2.1-7.3-3.8-14.1-9-22.1-10.7-13.1-2.7-26.1 4.4-39.4 4.9-15.4.6-30.3-7.8-45.6-6.3-5.5.5-10.8 2.3-16.3 2.5-5.5.2-11.6-1.5-14.4-6.2-2.9-4.9-1.4-11.2 1.6-16s7.3-8.6 10.5-13.3c4.3-6.4 6.4-14.2 5.8-21.9-.2-2.7-.7-5.5.1-8.1.7-2.2 2.3-4 3.5-6 4.8-8.2 1.4-18.5-2-27.4 14.5-6.3 24.8-21.3 25.3-37.1.2-5.8-.8-11.9 1.4-17.4 2.9-7.3 10.7-11.3 18.2-13.4 7.5-2.1 15.5-3 22.3-6.9 7.8-4.5 13.4-12.5 21.9-15.5 15.1-5.3 29.9 7.5 45.2 12.2"></path>
  <path fill="#f79c7f" d="M1729 736.7s-6 51.8 10 69.7c0 0 17.3 10.6 37.8 13.3 0 0 98.3 19.3 96.3 129.5h-357.9s-13.3-100.9 83.7-121.5c0 0 58.4-11.3 57.8-24.6l4-65.7 68.3-.7z"></path>
  <path fill="#d97d68" d="m1660.6 737.4-3.8 62.2c18.9 7.3 43.7 6.7 72.8-17.2-3.4-21.1-.6-45.7-.6-45.7l-68.4.7z"></path>
  <path fill="#be7c70" d="M1625.6 680.1c0-6.3-3.8-11.9-2-17.7-.9-.2-1.9-.3-2.8-.3-9.5 0-17.2 8.5-17.2 18.9 0 10.4 7.7 18.9 17.2 18.9 1 0 2.1-.1 3.1-.3 1.7-6.5 1.7-12.9 1.7-19.5zm146-18c-1 0-2 .1-2.9.3 1.8 5.8-1.3 12.3-1.3 18.6 0 6.6 0 12.7 1.1 18.5 1 .2 2.1.3 3.2.3 9.5 0 17.2-8.5 17.2-18.9-.1-10.3-7.8-18.8-17.3-18.8z"></path>
  <ellipse cx="1696.1" cy="672" fill="#f79d7b" rx="75.4" ry="100.6"></ellipse>
  <path fill="#342933" d="M1714.9 646.8s13.9-26.1 38.2-4.5c0 0 1.8 5.4-5.4 4.5 0 0-14.4-12.6-32.8 0zm-40.9 0s-13.9-26.1-38.2-4.5c0 0-1.8 5.4 5.4 4.5 0 0 14.4-12.6 32.8 0z"></path>
  <ellipse cx="1659.4" cy="669.5" fill="#372737" rx="4.6" ry="8.8"></ellipse>
  <ellipse cx="1729.6" cy="669.5" fill="#372737" rx="4.6" ry="8.8"></ellipse>
  <path fill="#d97d68" d="M1699.5 685.9s7.8 6.8 12.9 5.8c5.1-1-2.1 17.9-8 18.7 0 0-3.7 1.8-6.4 0 0 0 10.2-9.2 10.9-14-.1 0-6.3-6-9.4-10.5z"></path>
  <ellipse cx="1658.3" cy="664.9" fill="#fff" rx="1.2" ry="1.6"></ellipse>
  <ellipse cx="1728.4" cy="664.9" fill="#fff" rx="1.2" ry="1.6"></ellipse>
  <path fill="#372737" d="M1662.8 723.2h66.5s-35.6 56.3-66.5 0z"></path>
  <path fill="#fff" d="M1696.1 730.6c15.4 0 28.3-3.1 32.1-7.4H1664c3.7 4.3 16.7 7.4 32.1 7.4z"></path>
  <path fill="#f05352" d="M1693.7 736.6c-7 0-13.6 1-19.2 2.7 14.8 14.6 29.5 8.9 40 .5-6.1-2.1-13.2-3.2-20.8-3.2z"></path>
  <path fill="#f8bbaa" d="M1688.7 574.4s38.2-9.7 70.5 48.8c0 0-28-45.1-70.5-43.7 0 0-4.5-2.2 0-5.1z"></path>
  <path fill="#d97d68" d="M1650 681s7.9 8.6 16.5 0c0 0-7.8 5.2-16.5 0zm70.2 0s7.9 8.6 16.5 0c0 0-7.9 5.2-16.5 0z"></path>
  <path fill="#342933" d="M1606.9 698.2c7.2-2.6 12.9-8.3 17.6-14.4 3.4-4.5 6.4-11.1 2.7-15.4 8.6-3.2 13.4-14.2 9.8-22.7-.8-1.8-1.9-3.6-1.9-5.5-.1-4.8 5.5-7.3 9.4-10.2 5.3-4 8.3-10.9 7.6-17.5 9.6-1.8 17.8-9.5 20.2-18.9 7.4 2.6 16.4-.1 21.1-6.4 6.5 8.2 18 12.1 28.2 9.6-1.8 5.6.9 11.9 5.3 15.8 4.4 3.9 10.4 5.6 16.2 6.4-.9 4.1 1.3 8.5 4.5 11.3s7.3 4.3 11.3 5.8c1.3.5 2.6 1 3.6 2 .8.9 1.3 2 1.8 3.1 4.3 8.5 14.4 12 23.6 14.6 2.9-8.5 3-18 .3-26.6-2.5-7.9-7.2-14.8-10.4-22.4-3-7.3-4.7-15.2-8.6-22-5.3-9.3-14.3-16-24.2-20.2-9.8-4.2-20.5-6-31.1-7.2-7.1-.9-14.3-1.5-21.5-1.1-15.6.8-30.8 6.3-44.3 14.2-13.5 7.9-25.4 18.3-36.5 29.3-7.5 7.4-14.8 15.6-18 25.6-1.7 5.3-2.1 10.8-2.4 16.3-.9 17.4.1 36.1 10.2 50.3"></path>
  <path fill="#ef7c6e" d="M1781.2 820.8c-27.7 13.3-54.3 19.2-78.3 20.9l-8.4 57.8L1679 842c-33-1.4-59.1-10-73.3-15.8-4.1.9-6.7 1.4-6.7 1.4-96.9 20.6-83.7 121.5-83.7 121.5h357.9c1.6-96.1-73-123-92-128.3z"></path>
  <path fill="#fcd3cc" d="M1678.9 842.1c-33-1.4-59.1-10-73.3-15.8-4.1.9-6.7 1.4-6.7 1.4-16.1 3.4-29 9.1-39.6 16 33.9 17.3 80.8 35.4 129.8 36.1l-10.2-37.7zm18.4 37.6c38.8-1 78.6-13.4 114.1-46.1-12.8-7.4-24.3-11.2-30.3-12.8-27.7 13.3-54.3 19.2-78.3 20.9l-5.5 38z"></path>
  <path fill="#b35750" d="M1807.5 949.2c-2.1-26.8-6.2-60.8-13.6-74.5v74.5h13.6zm-222.1 0v-74.5c-7.4 13.7-11.4 47.7-13.6 74.5h13.6z"></path>
</svg>
