<?xml version="1.0" encoding="utf-8"?><!-- Generator: Adobe Illustrator 21.1.0, SVG Export Plug-In . SVG Version: 6.00 Build 0)  --><svg xmlns="http://www.w3.org/2000/svg" xmlns:xlink="http://www.w3.org/1999/xlink" viewBox="0 0 128 128" width="64px" height="64px"><g><g><circle cx="15" cy="33" r="10" style="fill:#FFFFFF;"/></g><g><g><circle cx="95" cy="113" r="10" style="fill:#FFFFFF;"/></g><g><g><g><g><path d="M112.4,26.1c0.3-0.2-4,5.6-4.8,14.9s1.7,22.3,1.6,22.4l0,0L42,86.9l23.3-67.2l0,0c0.1-0.1,12.1,2.6,20.9,1.8c9.9-0.9,16.7-5.3,16.5-5" style="fill:#FFFFFF;"/></g></g></g><g><path d="M123.8,33.3l-9.2-9.2c0,0-0.1-0.1-0.1-0.1c0,0,0,0-0.1-0.1l-9.5-9.5c0,0,0,0,0-0.1c-0.1-0.1-0.2-0.2-0.3-0.3l-9-9c-1.2-1.2-3.1-1.2-4.2,0c-1.2,1.2-1.2,3.1,0,4.2l6.3,6.3c-2.7,1.1-6.8,2.5-11.6,2.9c-6.7,0.6-15.5-0.9-18.8-1.5c-1.7-0.3-2.8-0.5-3.9,0.6c-0.3,0.3-0.6,0.7-0.7,1.1l-14.8,43c-0.5,1.6,0.3,3.3,1.9,3.8c0.3,0.1,0.7,0.2,1,0.2c1.2,0,2.4-0.8,2.8-2l14-40.6c4.1,0.7,12.4,2,19.1,1.4c5.2-0.5,10.5-2,15.6-4.4l6.6,6.6c-2.3,4.4-3.7,9.1-4.1,14.1c-0.7,7.2,0.6,16.4,1.3,20.7L53.4,79.7l28.9-28.9c1.2-1.2,1.2-3.1,0-4.2c-1.2-1.2-3.1-1.2-4.2,0L39.9,84.7c0,0-0.1,0.1-0.1,0.1c-0.1,0.1-0.1,0.2-0.2,0.3c-0.1,0.1-0.1,0.2-0.1,0.2c0,0.1-0.1,0.2-0.1,0.3c0,0.1-0.1,0.2-0.1,0.3c0,0.1-0.1,0.2-0.1,0.3c0,0.1,0,0.2,0,0.3c0,0.1,0,0.2,0,0.3c0,0.1,0,0.2,0,0.3c0,0.1,0,0.2,0,0.3c0,0.1,0,0.2,0.1,0.3c0,0.1,0,0.1,0,0.2c0,0,0,0,0,0.1c0,0.1,0.1,0.1,0.1,0.2c0.1,0.1,0.1,0.2,0.2,0.3c0,0.1,0.1,0.1,0.1,0.2c0.1,0.1,0.2,0.2,0.3,0.3c0,0,0,0,0.1,0.1c0,0,0,0,0,0c0.1,0.1,0.3,0.2,0.4,0.3c0,0,0.1,0,0.1,0.1c0.1,0.1,0.2,0.1,0.3,0.2c0.1,0,0.1,0,0.2,0.1c0.1,0,0.2,0.1,0.4,0.1c0.1,0,0.1,0,0.2,0c0.2,0,0.3,0.1,0.5,0.1c0.2,0,0.4,0,0.5-0.1c0.1,0,0.1,0,0.2,0c0.1,0,0.2,0,0.3-0.1l67.2-23.3c0.4-0.1,0.8-0.4,1.1-0.7c1.1-1.1,1-2.1,0.6-4.1c-0.6-3.6-2-13.1-1.4-20.2c0.3-3.6,1.2-7,2.6-10.2l6.4,6.4c0.6,0.6,1.4,0.9,2.1,0.9s1.5-0.3,2.1-0.9C125,36.4,125,34.5,123.8,33.3z" style="fill:#444B54;"/><g><path d="M87.3,44.6c-0.8,0-1.6-0.3-2.1-0.9c-0.6-0.6-0.9-1.3-0.9-2.1c0-0.8,0.3-1.6,0.9-2.1c0.7-0.7,1.7-1,2.7-0.8c0.2,0,0.4,0.1,0.6,0.2c0.2,0.1,0.4,0.2,0.5,0.3c0.2,0.1,0.3,0.2,0.5,0.4c0.1,0.1,0.3,0.3,0.4,0.5c0.1,0.2,0.2,0.3,0.3,0.5c0.1,0.2,0.1,0.4,0.2,0.6c0,0.2,0.1,0.4,0.1,0.6c0,0.8-0.3,1.6-0.9,2.1c-0.1,0.1-0.3,0.3-0.5,0.4c-0.2,0.1-0.3,0.2-0.5,0.3c-0.2,0.1-0.4,0.1-0.6,0.2S87.4,44.6,87.3,44.6z" style="fill:#444B54;"/></g></g><path d="M95,100c-6.1,0-11.3,4.3-12.6,10H75c-31.4,0-57-25.6-57-57v-7.4c5.7-1.4,10-6.5,10-12.6c0-7.2-5.8-13-13-13S2,25.8,2,33c0,6.1,4.3,11.3,10,12.6V53c0,34.7,28.3,63,63,63h7.4c1.4,5.7,6.5,10,12.6,10c7.2,0,13-5.8,13-13S102.2,100,95,100z M8,33c0-3.9,3.1-7,7-7s7,3.1,7,7s-3.1,7-7,7S8,36.9,8,33z M95,120c-3.9,0-7-3.1-7-7s3.1-7,7-7s7,3.1,7,7S98.9,120,95,120z" style="fill:#71C2FF;"/></g></g></g></svg>