<svg xmlns="http://www.w3.org/2000/svg" viewBox="0 0 64 64" id="approach">
  <path fill="#4e5292" d="M11.71 35.05c-3.46 0-6.28 2.81-6.28 6.27s2.82 6.28 6.28 6.28 6.27-2.82 6.27-6.28-2.81-6.27-6.27-6.27zm0 1.94c1.79 0 3.35 1.1 4 2.66-.8-.02-1.33-.16-2.17-.89a.982.982 0 0 0-1.32.05c-.07.07-1.52 1.43-4.3.45.73-1.34 2.15-2.27 3.79-2.27zm0 8.68c-2.4 0-4.34-1.95-4.34-4.34 0-.07.02-.14.02-.2 2.68.92 4.56.18 5.5-.41 1.15.8 2.08.88 3.13.88-.15 2.27-2.01 4.07-4.31 4.07z"></path>
  <path fill="#f0d299" d="M16.01 41.6c-.15 2.27-2.01 4.07-4.31 4.07-2.4 0-4.34-1.95-4.34-4.34 0-.07.02-.14.02-.2 2.68.92 4.56.18 5.5-.41 1.16.79 2.09.88 3.13.88z"></path>
  <path fill="#98d3ba" d="M15.7 39.65c-.8-.02-1.33-.16-2.17-.89a.982.982 0 0 0-1.32.05c-.07.07-1.52 1.43-4.3.45.74-1.34 2.15-2.26 3.79-2.26 1.8-.01 3.35 1.09 4 2.65z"></path>
  <path fill="#ffe4aa" d="M16.01 41.6c-.15 2.27-2.01 4.07-4.31 4.07 1.64 0 2.97-1.84 3.03-4.17.42.08.85.1 1.28.1z"></path>
  <path fill="#dfc189" d="M11.71 45.67c-2.4 0-4.34-1.95-4.34-4.34 0-.07.02-.14.02-.2.46.16.88.26 1.29.34.03 2.34 1.37 4.2 3.03 4.2z"></path>
  <path fill="#b9e0ce" d="M15.7 39.65c-.48-.01-.87-.07-1.29-.27-.47-1.33-1.4-2.26-2.48-2.38 1.7.09 3.15 1.16 3.77 2.65z"></path>
  <path fill="#89c3a8" d="M11.26 37.03c-1.03.22-1.9 1.18-2.32 2.49-.32-.06-.67-.14-1.03-.27.68-1.21 1.9-2.08 3.35-2.22z"></path>
  <path fill="#4e5292" d="M14.07 48.5H9.34c-3.65 0-6.62 2.98-6.62 6.62v7.9c0 .54.44.97.97.97h16.03c.53 0 .97-.43.97-.97v-7.9c0-3.64-2.97-6.62-6.62-6.62zm4.68 13.56H4.66v-6.93c0-2.58 2.1-4.68 4.68-4.68h4.72c2.58 0 4.68 2.1 4.68 4.68v6.93z"></path>
  <path fill="#bec5da" d="M18.75 55.13v6.93H4.66v-6.93c0-2.58 2.1-4.68 4.68-4.68h4.72c2.58-.01 4.69 2.1 4.69 4.68z"></path>
  <path fill="#d3d7e4" d="M18.75 55.13v6.93h-1.99v-6.93c0-2.58-1.51-4.68-3.36-4.68h.67c2.57-.01 4.68 2.1 4.68 4.68z"></path>
  <path fill="#acb3c6" d="M10.01 50.44c-1.85 0-3.36 2.1-3.36 4.68v6.93H4.66v-6.93c0-2.58 2.1-4.68 4.68-4.68h.67z"></path>
  <path fill="#4e5292" d="M41.7 45.9c0-.01.01-.03.01-.05 0-.05-.02-.1-.03-.15-.34-2.45-2.42-4.35-4.97-4.35-2.19 0-4.04 1.42-4.73 3.37-.01.02-.12.39-.12.39-.12.41-.19.83-.19 1.28a5.05 5.05 0 0 0 5.04 5.04c2.78 0 5.04-2.26 5.04-5.04 0-.16-.03-.33-.05-.49zm-4.99-2.61c1.14 0 2.14.63 2.68 1.56-.38-.06-.68-.21-1.12-.6a.983.983 0 0 0-1.32.05c-.05.04-.99.91-2.8.37.54-.83 1.49-1.38 2.56-1.38zm0 6.2c-1.66 0-3.01-1.32-3.08-2.96 1.86.54 3.22.09 3.99-.35.79.51 1.46.61 2.16.63-.22 1.51-1.5 2.68-3.07 2.68z"></path>
  <path fill="#f0d299" d="M39.77 46.82c-.21 1.5-1.49 2.68-3.06 2.68-1.66 0-3.01-1.32-3.08-2.96 1.86.54 3.22.09 3.99-.35.78.51 1.45.61 2.15.63z"></path>
  <path fill="#98d3ba" d="M39.38 44.85c-.38-.06-.68-.21-1.12-.6a.983.983 0 0 0-1.32.05c-.05.04-.99.91-2.8.37a3.11 3.11 0 0 1 2.57-1.38c1.14 0 2.14.63 2.67 1.56z"></path>
  <path fill="#dfc189" d="M36.28 49.45c-1.45-.19-2.59-1.43-2.66-2.92.41.12.79.19 1.14.22.11 1.34.72 2.42 1.52 2.7z"></path>
  <path fill="#ffe4aa" d="M39.77 46.82a3.098 3.098 0 0 1-2.67 2.65c.83-.27 1.47-1.41 1.54-2.8.39.11.75.14 1.13.15z"></path>
  <path fill="#b9e0ce" d="M39.38 44.85c-.38-.06-.68-.21-1.12-.6-.07-.06-.14-.11-.21-.15-.26-.4-.58-.67-.94-.79.97.13 1.81.71 2.27 1.54z"></path>
  <path fill="#89c3a8" d="M36.31 43.32c-.55.17-1.02.74-1.28 1.51h-.01a4.45 4.45 0 0 1-.88-.16c.48-.72 1.27-1.24 2.17-1.35z"></path>
  <path fill="#4e5292" d="M38.52 52.22H34.9c-2.93 0-5.31 2.39-5.31 5.3v5.51c0 .54.44.97.97.97h12.3c.53 0 .97-.43.97-.97v-5.51c0-2.92-2.38-5.3-5.31-5.3zm3.37 9.84H31.53v-4.54a3.37 3.37 0 0 1 3.37-3.36h3.62c1.85 0 3.36 1.51 3.36 3.36v4.54z"></path>
  <path fill="#bbe0f6" d="M41.89 57.52v4.54H31.53v-4.54a3.37 3.37 0 0 1 3.37-3.36h3.62c1.85 0 3.37 1.51 3.37 3.36z"></path>
  <path fill="#cae5f7" d="M41.89 57.52v4.54h-1.4v-4.54c0-1.85-1.11-3.36-2.46-3.36h.49c1.85 0 3.37 1.51 3.37 3.36z"></path>
  <path fill="#a7d6e7" d="M35.39 54.16c-1.36 0-2.46 1.51-2.46 3.36v4.54h-1.4v-4.54a3.37 3.37 0 0 1 3.37-3.36h.49z"></path>
  <path fill="#4e5292" d="M59.16 45.9c0-.01.01-.03.01-.05 0-.05-.02-.1-.03-.15-.34-2.45-2.42-4.35-4.97-4.35-2.19 0-4.04 1.42-4.73 3.37-.01.02-.12.39-.12.39-.12.41-.19.83-.19 1.28a5.05 5.05 0 0 0 5.04 5.04c2.78 0 5.04-2.26 5.04-5.04a8.13 8.13 0 0 0-.05-.49zm-5-2.61c1.14 0 2.14.63 2.68 1.56-.38-.06-.68-.21-1.12-.6a.983.983 0 0 0-1.32.05c-.05.04-.99.91-2.8.37a3.08 3.08 0 0 1 2.56-1.38zm0 6.2c-1.66 0-3.01-1.32-3.08-2.96 1.86.54 3.22.09 3.99-.35.79.51 1.46.61 2.16.63-.22 1.51-1.5 2.68-3.07 2.68z"></path>
  <path fill="#f0d299" d="M57.23 46.82c-.21 1.5-1.49 2.68-3.06 2.68-1.66 0-3.01-1.32-3.08-2.96 1.86.54 3.22.09 3.99-.35.77.51 1.45.61 2.15.63z"></path>
  <path fill="#98d3ba" d="M56.84 44.85c-.38-.06-.68-.21-1.12-.6a.983.983 0 0 0-1.32.05c-.05.04-.99.91-2.8.37a3.11 3.11 0 0 1 2.57-1.38c1.14 0 2.14.63 2.67 1.56z"></path>
  <path fill="#dfc189" d="M53.74 49.45c-1.45-.19-2.59-1.43-2.66-2.92.41.12.79.19 1.14.22.1 1.34.71 2.42 1.52 2.7z"></path>
  <path fill="#ffe4aa" d="M57.23 46.82a3.098 3.098 0 0 1-2.67 2.65c.83-.27 1.47-1.41 1.54-2.8.38.11.75.14 1.13.15z"></path>
  <path fill="#b9e0ce" d="M56.84 44.85c-.38-.06-.68-.21-1.12-.6-.07-.06-.14-.11-.21-.15-.26-.4-.58-.67-.94-.79.97.13 1.8.71 2.27 1.54z"></path>
  <path fill="#89c3a8" d="M53.76 43.32c-.55.17-1.02.74-1.28 1.51h-.01a4.45 4.45 0 0 1-.88-.16c.49-.72 1.27-1.24 2.17-1.35z"></path>
  <path fill="#4e5292" d="M55.98 52.22h-3.62c-2.93 0-5.31 2.39-5.31 5.3v5.51c0 .54.44.97.97.97h12.3c.53 0 .97-.43.97-.97v-5.51c-.01-2.92-2.39-5.3-5.31-5.3zm3.36 9.84H48.98v-4.54a3.37 3.37 0 0 1 3.37-3.36h3.62c1.85 0 3.36 1.51 3.36 3.36v4.54z"></path>
  <path fill="#bbe0f6" d="M59.34 57.52v4.54H48.98v-4.54a3.37 3.37 0 0 1 3.37-3.36h3.62a3.37 3.37 0 0 1 3.37 3.36z"></path>
  <path fill="#cae5f7" d="M59.34 57.52v4.54h-1.4v-4.54c0-1.85-1.11-3.36-2.46-3.36h.49a3.37 3.37 0 0 1 3.37 3.36z"></path>
  <path fill="#a7d6e7" d="M52.84 54.16c-1.36 0-2.46 1.51-2.46 3.36v4.54h-1.4v-4.54a3.37 3.37 0 0 1 3.37-3.36h.49z"></path>
  <path fill="#4e5292" d="M36.14 0C23.22 0 12.71 7.87 12.71 17.55c0 4.33 2.1 8.47 5.94 11.68l-1.02 5.16c-.07.34.06.69.32.92a.952.952 0 0 0 .96.17l6.53-2.32c3.29 1.26 6.97 1.92 10.7 1.92 12.92 0 23.43-7.87 23.43-17.54C59.56 7.87 49.05 0 36.14 0zm0 33.15c-3.61 0-7.18-.66-10.32-1.92a.889.889 0 0 0-.36-.07c-.11 0-.22.02-.32.06l-5.27 1.87.8-4.05a.977.977 0 0 0-.35-.95c-3.66-2.89-5.67-6.63-5.67-10.54 0-8.61 9.64-15.61 21.49-15.61 11.85 0 21.49 7 21.49 15.61-.01 8.6-9.64 15.6-21.49 15.6z"></path>
  <path fill="#d8dfe6" d="M36.14 1.94c-11.85 0-21.49 7-21.49 15.61 0 3.91 2.02 7.65 5.67 10.54.28.22.42.59.35.95l-.8 4.05 5.27-1.87c.1-.04.21-.06.32-.06.13 0 .24.02.36.07 3.14 1.26 6.71 1.92 10.32 1.92 11.85 0 21.49-7 21.49-15.6-.01-8.61-9.64-15.61-21.49-15.61zm-3.52 15.07-2.39 2.33.56 3.3c.06.36-.09.73-.39.95-.17.12-.37.18-.57.18-.16 0-.31-.04-.45-.12l-2.96-1.55-2.96 1.55c-.33.17-.73.15-1.03-.07a.976.976 0 0 1-.38-.95l.56-3.3-2.4-2.33a.976.976 0 0 1 .54-1.66l3.31-.48 1.48-3c.33-.67 1.42-.67 1.74 0l1.48 3 3.31.48c.37.06.67.31.79.66.11.36.03.75-.24 1.01zm19.71 2.86c0 .53-.44.97-.97.97h-8.18v1.63c0 .38-.21.72-.55.88-.14.06-.27.09-.42.09-.21 0-.44-.08-.62-.22l-5.9-4.92a.99.99 0 0 1-.35-.75c0-.29.13-.56.35-.75l5.9-4.92c.29-.24.7-.3 1.04-.14.34.16.55.5.55.87v1.63h8.18c.53 0 .97.44.97.97v4.66z"></path>
  <path fill="#ccd5dd" d="M56.01 23.46c-.22.43-.48.83-.78 1.23-3.88 4.08-10.38 6.77-17.71 6.77-3.61 0-7.18-.66-10.32-1.92a.889.889 0 0 0-.36-.07c-.11 0-.22.02-.32.06l-5.27 1.87.8-4.05a.977.977 0 0 0-.35-.95c-3.66-2.89-5.67-6.63-5.67-10.54 0-2.56.85-4.98 2.37-7.12.61-.64 1.28-1.25 2.01-1.81-1.03 1.82-1.59 3.81-1.59 5.9 0 3.04 1.21 5.96 3.47 8.48l-.23 1.34c-.07.36.09.73.38.95.3.21.7.24 1.03.07l.84-.45c.06.06.12.11.18.16.28.23.42.6.35.96l-.8 4.04 5.27-1.86c.1-.05.21-.06.32-.06.13 0 .24.01.36.07 3.14 1.26 6.71 1.91 10.32 1.91 6.19-.02 11.78-1.93 15.7-4.98z"></path>
  <path fill="#b5c3cc" d="M55.24 24.69c-3.57 5.02-10.79 8.47-19.1 8.47-3.61 0-7.18-.66-10.32-1.92a.889.889 0 0 0-.36-.07c-.11 0-.22.02-.32.06l-5.27 1.87.8-4.05a.977.977 0 0 0-.35-.95c-3.66-2.89-5.67-6.63-5.67-10.54 0-3.27 1.4-6.3 3.76-8.81-1.51 2.13-2.37 4.56-2.37 7.12 0 3.91 2.02 7.65 5.67 10.54.28.22.42.59.35.95l-.8 4.05 5.27-1.87c.1-.04.21-.06.32-.06.13 0 .24.02.36.07 3.14 1.26 6.71 1.92 10.32 1.92 7.33-.01 13.83-2.7 17.71-6.78z"></path>
  <path fill="#4e5292" d="M51.36 14.25h-8.18v-1.63c0-.37-.21-.72-.55-.87a.966.966 0 0 0-1.04.14l-5.9 4.92c-.22.18-.35.46-.35.75 0 .28.13.56.35.75l5.9 4.92c.18.15.41.22.62.22.15 0 .28-.03.42-.09.34-.16.55-.5.55-.88v-1.63h8.18c.53 0 .97-.44.97-.97v-4.64c0-.55-.44-.99-.97-.99zm-.97 4.65h-8.18c-.53 0-.97.44-.97.97v.53l-3.41-2.85 3.41-2.85v.52c0 .54.44.97.97.97h8.18v2.71z"></path>
  <path fill="#f1b8c7" d="M50.39 16.19v2.71h-8.18c-.53 0-.97.44-.97.97v.53l-3.41-2.85 3.41-2.85v.52c0 .54.44.97.97.97h8.18z"></path>
  <path fill="#4e5292" d="M32.87 16.01a.994.994 0 0 0-.79-.66l-3.31-.48-1.48-3c-.32-.67-1.41-.67-1.74 0l-1.48 3-3.31.48a.976.976 0 0 0-.54 1.66l2.4 2.33-.56 3.3c-.07.36.09.73.38.95.3.21.7.24 1.03.07l2.96-1.55 2.96 1.55c.14.08.29.12.45.12.2 0 .4-.07.57-.18.3-.22.45-.59.39-.95l-.56-3.3 2.39-2.33c.26-.27.34-.66.24-1.01zm-4.37 2.3c-.22.22-.33.54-.27.85l.31 1.86-1.67-.88a.997.997 0 0 0-.45-.11c-.16 0-.31.04-.46.11l-1.67.88.32-1.86a.963.963 0 0 0-.28-.85L23 16.99l1.86-.27a.96.96 0 0 0 .73-.53l.84-1.69.83 1.69c.14.29.41.48.73.53l1.87.27-1.36 1.32z"></path>
  <path fill="#ffdb7c" d="m28.23 19.16.31 1.86-1.67-.88a.997.997 0 0 0-.45-.11c-.16 0-.31.04-.46.11l-1.67.88.32-1.86a.963.963 0 0 0-.28-.85L23 16.99l1.86-.27a.96.96 0 0 0 .73-.53l.84-1.69.83 1.69c.14.29.41.48.73.53l1.87.27-1.36 1.32c-.22.22-.33.54-.27.85z"></path>
  <path fill="#4e5292" d="M27.39 56.56H22.9c-.54 0-.97.43-.97.97s.43.97.97.97h4.49c.54 0 .97-.43.97-.97s-.43-.97-.97-.97z"></path>
</svg>
