<?xml version="1.0" encoding="utf-8"?>
<!-- Generator: Adobe Illustrator 24.0.0, SVG Export Plug-In . SVG Version: 6.00 Build 0)  -->
<svg version="1.1" id="Layer_1" xmlns="http://www.w3.org/2000/svg" xmlns:xlink="http://www.w3.org/1999/xlink" x="0px" y="0px"
	 viewBox="0 0 512 512" style="enable-background:new 0 0 512 512;" xml:space="preserve">
<style type="text/css">
	.st0{fill:#F0915A;}
	.st1{fill:#555A6E;}
	.st2{fill:#463C4B;}
	.st3{fill:#289BC3;}
	.st4{fill:#00D2D2;}
	.st5{fill:#FAB991;}
	.st6{fill:#E64178;}
	.st7{fill:#FF6E91;}
	.st8{fill:#FF8CAF;}
	.st9{fill:#D7E6F0;}
	.st10{fill:#FAA51E;}
	.st11{fill:#A5C3DC;}
	.st12{fill:#FFFFFF;}
	.st13{fill:#1EF0F0;}
	.st14{fill:#353744;}
	.st15{fill:#FA9B37;}
	.st16{fill:#FFD241;}
	.st17{fill:#FBBE18;}
	.st18{fill:#F68820;}
	.st19{fill:#FBD301;}
	.st20{fill:#78B441;}
	.st21{fill:#A5CD3C;}
	.st22{fill:#9B5FAA;}
	.st23{fill:#6EA5D7;}
	.st24{fill:#F5732D;}
	.st25{fill:#4B55A5;}
	.st26{fill:#648C3C;}
	.st27{fill:#643773;}
</style>
<g>
	<g>
		<g>
			<path class="st2" d="M456,392H24V184c0-17.673,14.327-32,32-32h368c17.673,0,32,14.327,32,32V392z"/>
		</g>
		<g>
			<path class="st1" d="M424,392H24V184c0-17.673,14.327-32,32-32h336c17.673,0,32,14.327,32,32V392z"/>
		</g>
		<g>
			<path class="st11" d="M56,432h368c17.673,0,32-14.327,32-32v-8H24v8C24,417.673,38.327,432,56,432z"/>
		</g>
		<g>
			<path class="st9" d="M392,432H56c-17.673,0-32-14.327-32-32v-8h400v8C424,417.673,409.673,432,392,432z"/>
		</g>
		<g>
			<rect x="192" y="432" class="st11" width="72" height="32"/>
		</g>
		<g>
			<rect x="192" y="448" class="st9" width="48" height="16"/>
		</g>
		<g>
			<path class="st9" d="M304,488H144v-8c0-8.837,7.163-16,16-16h128c8.837,0,16,7.163,16,16V488z"/>
		</g>
		<g>
			<path class="st11" d="M304,488h-48v-8c0-8.837,7.163-16,16-16h16c8.837,0,16,7.163,16,16V488z"/>
		</g>
	</g>
	<g>
		<g>
			<path class="st9" d="M112,324c-3.071,0-6.142-1.172-8.485-3.515l-40-40c-4.686-4.687-4.686-12.284,0-16.971l40-40
				c4.687-4.686,12.284-4.686,16.971,0c4.686,4.687,4.686,12.284,0,16.971L88.971,272l31.515,31.515
				c4.686,4.687,4.686,12.284,0,16.971C118.142,322.828,115.071,324,112,324z"/>
		</g>
		<g>
			<path class="st9" d="M224,324c-3.071,0-6.142-1.172-8.485-3.515c-4.686-4.687-4.686-12.284,0-16.971L247.029,272l-31.515-31.515
				c-4.686-4.687-4.686-12.284,0-16.971c4.687-4.686,12.284-4.686,16.971,0l40,40c4.686,4.687,4.686,12.284,0,16.971l-40,40
				C230.142,322.828,227.071,324,224,324z"/>
		</g>
		<g>
			<path class="st9" d="M151.996,324.003c-1.483,0-2.991-0.276-4.453-0.861c-6.153-2.461-9.146-9.445-6.685-15.599l32-80
				c2.461-6.152,9.444-9.146,15.598-6.685c6.153,2.461,9.146,9.445,6.685,15.599l-32,80
				C161.265,321.148,156.758,324.003,151.996,324.003z"/>
		</g>
	</g>
	<g>
		<g>
			<path class="st3" d="M296,368h160c17.673,0,32-14.327,32-32V208c0-17.673-14.327-32-32-32H296c-17.673,0-32,14.327-32,32v128
				C264,353.673,278.327,368,296,368z"/>
		</g>
		<g>
			<path class="st4" d="M296,368h112c17.673,0,32-14.327,32-32V208c0-17.673-14.327-32-32-32H296c-17.673,0-32,14.327-32,32v128
				C264,353.673,278.327,368,296,368z"/>
		</g>
		<g>
			<path class="st7" d="M328,176h-32v-70.98c0-44.044,35.169-80.589,79.211-81.016C419.684,23.573,456,59.625,456,104v0
				c0,8.837-7.163,16-16,16h-0.806c-8.392,0-15.194-6.803-15.194-15.194v0c0-26.284-20.793-48.298-47.072-48.797
				C350.038,55.499,328,77.225,328,104V176z"/>
		</g>
	</g>
	<g>
		<path class="st1" d="M384,240c0-18.425-15.573-33.214-34.274-31.921c-15.791,1.091-28.577,13.895-29.65,29.688
			c-0.867,12.768,5.765,24.063,15.924,29.942V320c0,8.837,7.163,16,16,16h0c8.837,0,16-7.163,16-16v-52.292
			C377.562,262.175,384,251.843,384,240z"/>
	</g>
	<g>
		<path class="st7" d="M472,144c-2.047,0-4.095-0.781-5.657-2.343c-3.125-3.125-3.125-8.189,0-11.314l16-16
			c3.124-3.123,8.189-3.123,11.313,0c3.125,3.125,3.125,8.189,0,11.314l-16,16C476.095,143.219,474.047,144,472,144z"/>
	</g>
	<g>
		<path class="st7" d="M408,144c-2.047,0-4.095-0.781-5.657-2.343l-16-16c-3.125-3.125-3.125-8.189,0-11.314
			c3.124-3.123,8.189-3.123,11.313,0l16,16c3.125,3.125,3.125,8.189,0,11.314C412.095,143.219,410.047,144,408,144z"/>
	</g>
</g>
</svg>