<?xml version="1.0" encoding="utf-8"?>
<!-- Generator: Adobe Illustrator 24.0.0, SVG Export Plug-In . SVG Version: 6.00 Build 0)  -->
<svg version="1.1" id="Layer_1" xmlns="http://www.w3.org/2000/svg" xmlns:xlink="http://www.w3.org/1999/xlink" x="0px" y="0px"
	 viewBox="0 0 256 256" enable-background="new 0 0 256 256" xml:space="preserve">
<g>
	<rect x="41.865" y="15.851" fill="#CECECE" width="119.366" height="166.406"/>
	<rect x="41.865" y="15.851" fill="#AFAFAF" width="14.667" height="166.406"/>
	<path fill="#F8AF23" d="M161.231,86.189v37.158l-7.314-8.581c-3.033-3.558-8.425-3.988-11.983-0.955l0,0
		c-3.558,3.033-3.988,8.425-0.955,11.983l16.638,19.52c0,0-4.966,20.957,8.124,32.93h37.006l-3.281-45.019
		c-0.394-4.158-2.957-7.675-5.564-10.583L161.231,86.189z"/>
	<g>
		<path fill="#F8D323" d="M199.467,133.225c-0.394-4.157-2.958-7.674-5.564-10.583l-32.671-36.453v16.364l18.005,20.089
			c2.607,2.909,5.171,6.426,5.564,10.583l3.281,45.019h14.667L199.467,133.225z"/>
	</g>
	<rect x="149.374" y="178.244" fill="#CECECE" width="64.761" height="22.988"/>
	<rect x="199.468" y="178.244" fill="#E2E2E2" width="14.667" height="22.988"/>
	<rect x="153.211" y="201.231" fill="#63BCE7" width="57.086" height="27.95"/>
	<rect x="195.631" y="201.232" fill="#63E2E7" width="14.667" height="27.95"/>
	<g>
		<path fill="#CECECE" d="M75.292,82.01c0.275,0.768,0.587,1.506,0.927,2.238l-6.879,6.879l13.526,13.526l6.879-6.879
			c0.731,0.34,1.477,0.652,2.237,0.927v9.732h19.124V98.7c0.76-0.275,1.506-0.587,2.237-0.927l6.879,6.879l13.526-13.526
			l-6.879-6.879c0.34-0.731,0.652-1.47,0.927-2.238h9.732V62.886h-9.732c-0.275-0.76-0.587-1.506-0.927-2.238l6.879-6.879
			l-13.526-13.526l-6.879,6.886c-0.731-0.34-1.477-0.659-2.237-0.934v-9.725H91.983v9.725c-0.76,0.275-1.506,0.594-2.237,0.934
			l-6.879-6.886L69.34,53.77l6.879,6.879c-0.34,0.731-0.652,1.477-0.927,2.238h-9.725V82.01H75.292z"/>
		<circle fill="#F8AF23" cx="101.548" cy="72.452" r="13.298"/>
	</g>
	<g>
		<circle fill="#F8AF23" cx="101.548" cy="187.778" r="28.136"/>
		<path fill="#F87023" d="M88.079,187.778c0-13.001,8.821-23.937,20.803-27.164c-2.339-0.63-4.796-0.971-7.333-0.971
			c-15.539,0-28.136,12.597-28.136,28.136s12.597,28.136,28.136,28.136c2.538,0,4.995-0.342,7.333-0.971
			C96.899,211.716,88.079,200.78,88.079,187.778z"/>
		<g>
			<path fill="#3F3679" d="M27.323,238.649H9.32c-0.829,0-1.5,0.671-1.5,1.5s0.671,1.5,1.5,1.5h18.003c0.829,0,1.5-0.671,1.5-1.5
				S28.152,238.649,27.323,238.649z"/>
			<path fill="#3F3679" d="M246.68,238.649h-18.003c-0.829,0-1.5,0.671-1.5,1.5s0.671,1.5,1.5,1.5h18.003c0.829,0,1.5-0.671,1.5-1.5
				S247.509,238.649,246.68,238.649z"/>
			<path fill="#3F3679" d="M218.479,238.649H37.521c-0.829,0-1.5,0.671-1.5,1.5s0.671,1.5,1.5,1.5h180.959
				c0.829,0,1.5-0.671,1.5-1.5S219.308,238.649,218.479,238.649z"/>
			<path fill="#3F3679" d="M9.32,230.676h143.843c0.016,0,0.032,0.005,0.048,0.005h57.086c0.017,0,0.032-0.004,0.048-0.005h36.334
				c0.829,0,1.5-0.671,1.5-1.5s-0.671-1.5-1.5-1.5h-34.883v-24.945h2.337c0.829,0,1.5-0.671,1.5-1.5v-22.988
				c0-0.829-0.671-1.5-1.5-1.5h-9.993l-3.182-43.66c-0.452-4.772-3.412-8.622-5.94-11.443l-32.288-36.026V15.851
				c0-0.829-0.671-1.5-1.5-1.5H41.865c-0.829,0-1.5,0.671-1.5,1.5v166.406c0,0.829,0.671,1.5,1.5,1.5h30.327
				c-0.179,1.316-0.28,2.657-0.28,4.021c0,16.341,13.294,29.636,29.636,29.636s29.636-13.295,29.636-29.636
				c0-1.365-0.101-2.705-0.28-4.021h16.971v17.475c0,0.829,0.671,1.5,1.5,1.5h2.337v24.945H9.32c-0.829,0-1.5,0.671-1.5,1.5
				S8.491,230.676,9.32,230.676z M192.785,123.643c2.221,2.478,4.819,5.823,5.185,9.691l3.164,43.41h-34.799
				c-11.746-11.293-7.304-30.887-7.257-31.085c0.109-0.464-0.009-0.955-0.318-1.318l-16.638-19.52
				c-2.504-2.938-2.151-7.364,0.787-9.868c1.416-1.207,3.229-1.792,5.096-1.64c1.871,0.149,3.565,1.011,4.772,2.427l7.314,8.581
				l13.888,16.292c0.297,0.348,0.718,0.527,1.142,0.527c0.344,0,0.69-0.118,0.973-0.358c0.63-0.538,0.706-1.484,0.168-2.115
				l-13.529-15.872v-0.381V90.11L192.785,123.643z M101.548,214.415c-14.687,0-26.636-11.949-26.636-26.636
				c0-14.687,11.949-26.636,26.636-26.636s26.636,11.949,26.636,26.636C128.184,202.466,116.235,214.415,101.548,214.415z
				 M130.336,180.757c-1.212-4.97-3.678-9.451-7.047-13.09h18.798c0.829,0,1.5-0.671,1.5-1.5s-0.671-1.5-1.5-1.5h-22.019
				c-5.078-4.077-11.517-6.524-18.521-6.524c-7.011,0-13.456,2.452-18.536,6.537c-0.042-0.003-0.081-0.012-0.124-0.012H61.008
				c-0.829,0-1.5,0.671-1.5,1.5s0.671,1.5,1.5,1.5h18.798c-3.368,3.639-5.834,8.12-7.047,13.09H43.365V17.351h116.366v68.838v33.085
				l-4.672-5.481c-3.577-4.197-9.902-4.7-14.098-1.124c-4.196,3.577-4.7,9.901-1.124,14.098l16.161,18.959
				c-0.334,1.726-1.045,6.194-0.726,11.649c0.353,6.015,1.876,11.335,4.458,15.746v3.622h-10.357c-0.829,0-1.5,0.671-1.5,1.5v2.513
				H130.336z M150.874,193.099h35.849c0.829,0,1.5-0.671,1.5-1.5s-0.671-1.5-1.5-1.5h-35.849v-10.355h14.867h37.006h9.888v19.988
				h-2.337h-57.086h-2.337V193.099z M154.711,202.731h54.086v24.945h-54.086V202.731z"/>
			<path fill="#3F3679" d="M195.056,193.099h7.691c0.829,0,1.5-0.671,1.5-1.5s-0.671-1.5-1.5-1.5h-7.691c-0.829,0-1.5,0.671-1.5,1.5
				S194.228,193.099,195.056,193.099z"/>
			<path fill="#3F3679" d="M142.088,138.139h-81.08c-0.829,0-1.5,0.671-1.5,1.5s0.671,1.5,1.5,1.5h81.08c0.829,0,1.5-0.671,1.5-1.5
				S142.917,138.139,142.088,138.139z"/>
			<path fill="#3F3679" d="M142.088,151.403h-81.08c-0.829,0-1.5,0.671-1.5,1.5s0.671,1.5,1.5,1.5h81.08c0.829,0,1.5-0.671,1.5-1.5
				S142.917,151.403,142.088,151.403z"/>
			<path fill="#3F3679" d="M65.567,83.51h8.693c0.055,0.134,0.111,0.27,0.168,0.406l-6.149,6.15c-0.586,0.585-0.586,1.536,0,2.121
				l13.526,13.526c0.586,0.586,1.535,0.586,2.121,0l6.151-6.15c0.135,0.057,0.27,0.113,0.405,0.168v8.702c0,0.829,0.671,1.5,1.5,1.5
				h19.124c0.829,0,1.5-0.671,1.5-1.5V99.73c0.135-0.055,0.27-0.111,0.405-0.168l6.151,6.15c0.563,0.563,1.559,0.563,2.121,0
				l13.526-13.526c0.586-0.586,0.586-1.536,0-2.121l-6.149-6.15c0.058-0.136,0.114-0.271,0.168-0.406h8.7c0.829,0,1.5-0.671,1.5-1.5
				V62.886c0-0.829-0.671-1.5-1.5-1.5h-8.702c-0.055-0.135-0.111-0.27-0.168-0.405l6.15-6.151c0.586-0.585,0.586-1.536,0-2.121
				l-13.526-13.526c-0.563-0.563-1.559-0.563-2.122,0l-6.149,6.155c-0.137-0.059-0.273-0.116-0.407-0.171v-8.697
				c0-0.829-0.671-1.5-1.5-1.5H91.982c-0.829,0-1.5,0.671-1.5,1.5v8.697c-0.134,0.055-0.269,0.112-0.406,0.17l-6.149-6.155
				c-0.281-0.282-0.663-0.44-1.061-0.44h0c-0.398,0-0.779,0.158-1.061,0.439L68.279,52.709c-0.281,0.281-0.439,0.663-0.439,1.061
				s0.158,0.779,0.439,1.061l6.15,6.151c-0.057,0.135-0.113,0.271-0.168,0.405h-8.694c-0.829,0-1.5,0.671-1.5,1.5V82.01
				C64.067,82.838,64.739,83.51,65.567,83.51z M67.067,64.386h8.225c0.632,0,1.196-0.396,1.411-0.99
				c0.25-0.691,0.544-1.403,0.876-2.115c0.266-0.571,0.146-1.248-0.299-1.693l-5.818-5.818l11.404-11.404l5.818,5.824
				c0.445,0.446,1.122,0.566,1.694,0.3c0.771-0.359,1.463-0.647,2.115-0.883c0.594-0.215,0.99-0.779,0.99-1.411v-8.225h16.124v8.225
				c0,0.632,0.396,1.196,0.99,1.411c0.653,0.236,1.345,0.525,2.115,0.883c0.573,0.266,1.249,0.146,1.694-0.3l5.818-5.824
				l11.404,11.404l-5.818,5.818c-0.446,0.445-0.565,1.122-0.299,1.693c0.332,0.712,0.626,1.424,0.876,2.115
				c0.215,0.594,0.779,0.99,1.411,0.99h8.232V80.51h-8.232c-0.633,0-1.199,0.398-1.412,0.994c-0.242,0.676-0.528,1.366-0.875,2.11
				c-0.266,0.572-0.146,1.248,0.299,1.694l5.818,5.818l-11.405,11.405l-5.818-5.818c-0.446-0.446-1.122-0.566-1.693-0.299
				c-0.712,0.332-1.424,0.626-2.115,0.876c-0.594,0.215-0.99,0.779-0.99,1.411v8.232H93.482V98.7c0-0.632-0.396-1.196-0.99-1.411
				c-0.69-0.25-1.401-0.544-2.115-0.876c-0.571-0.267-1.248-0.146-1.693,0.299l-5.818,5.818L71.461,91.126l5.818-5.818
				c0.446-0.446,0.565-1.122,0.299-1.694c-0.346-0.744-0.632-1.434-0.875-2.11c-0.213-0.596-0.779-0.994-1.412-0.994h-8.225V64.386z
				"/>
			<path fill="#3F3679" d="M101.548,87.25c8.16,0,14.798-6.638,14.798-14.798s-6.638-14.798-14.798-14.798
				S86.75,64.292,86.75,72.452S93.388,87.25,101.548,87.25z M101.548,60.654c6.505,0,11.798,5.292,11.798,11.798
				s-5.292,11.798-11.798,11.798S89.75,78.957,89.75,72.452S95.042,60.654,101.548,60.654z"/>
			<path fill="#3F3679" d="M103.864,176.538c2.366,0,4.292,1.925,4.292,4.291c0,0.829,0.671,1.5,1.5,1.5s1.5-0.671,1.5-1.5
				c0-4.021-3.271-7.291-7.292-7.291h-0.816v-0.817c0-0.829-0.671-1.5-1.5-1.5s-1.5,0.671-1.5,1.5v0.817h-0.816
				c-4.021,0-7.291,3.271-7.291,7.291s3.271,7.291,7.291,7.291h0.816v10.899h-0.816c-2.366,0-4.291-1.925-4.291-4.291
				c0-0.829-0.671-1.5-1.5-1.5s-1.5,0.671-1.5,1.5c0,4.021,3.271,7.291,7.291,7.291h0.816v0.816c0,0.829,0.671,1.5,1.5,1.5
				s1.5-0.671,1.5-1.5v-0.816h0.816c4.021,0,7.292-3.271,7.292-7.291v-2.316c0-4.021-3.271-7.292-7.292-7.292h-0.816v-8.582H103.864
				z M103.864,188.12c2.366,0,4.292,1.925,4.292,4.292v2.316c0,2.366-1.925,4.291-4.292,4.291h-0.816V188.12H103.864z
				 M100.048,185.12h-0.816c-2.366,0-4.291-1.925-4.291-4.291s1.925-4.291,4.291-4.291h0.816V185.12z"/>
		</g>
	</g>
</g>
</svg>