<svg xmlns="http://www.w3.org/2000/svg" viewBox="0 0 32 32" id="partnership">
  <path fill="#ffd9aa" d="M21.44,13.52c-.67-.94-1.3-1.91-1.94-2.87-.47-.71-.94-1.42-1.42-2.15h-8v10a1,1,0,0,0,2,0v2a1,1,0,0,0,2,0v1a.868.868,0,0,0,.1.42.986.986,0,0,0,.9.58.909.909,0,0,0,.37-.08.924.924,0,0,0,.48-.39,1.089,1.089,0,0,0,.06-.11.06.06,0,0,0,.01-.04v-.01l.01-.01a1.1,1.1,0,0,0,.07-.36v-1a1,1,0,0,0,.46.84,1.006,1.006,0,0,0,.54.16.961.961,0,0,0,.86-.51.267.267,0,0,0,.06-.1,1.007,1.007,0,0,0,.08-.39V13.45c.59.53,1.19,1.06,1.78,1.59a1.7,1.7,0,0,0,1.16.6.09.09,0,0,0,.05-.01.957.957,0,0,0,.84-1.12A2.513,2.513,0,0,0,21.44,13.52Z"></path>
  <rect width="8" height="2" x="10.08" y="6.5" fill="#e23342"></rect>
  <path fill="#ed456a" d="M12.08.5h4a2,2,0,0,1,2,2v4a0,0,0,0,1,0,0h-8a0,0,0,0,1,0,0v-4A2,2,0,0,1,12.08.5Z"></path>
  <polyline fill="#ffd9aa" points="17.4 23.27 17.14 23.01 16 21.88 16 21.87"></polyline>
  <line x1="23.06" x2="21.07" y1="17.62" y2="15.63" fill="#ffd9aa"></line>
  <path fill="#ffd9aa" d="M18.06,12.62l5.03,5.03c.04-.79.09-1.59.14-2.38a1.682,1.682,0,0,1,.39-1.25.969.969,0,0,1,1.43.17,2.7,2.7,0,0,1,.37,1.04c.19,1.13.43,2.27.65,3.4.17.83.34,1.67.52,2.52l-5.66,5.66-2.39-2.39L12.4,18.27Z"></path>
  <rect width="8.001" height="2.005" x="20.47" y="23.685" fill="#349ad1" transform="rotate(-44.949 24.47 24.687)"></rect>
  <path fill="#82c8ec" d="M23.3,24.515h8a0,0,0,0,1,0,0v4a2,2,0,0,1-2,2h-4a2,2,0,0,1-2-2v-4A0,0,0,0,1,23.3,24.515Z" transform="rotate(-45 27.299 27.514)"></path>
  <polyline fill="#ffd9aa" points="14.6 23.27 14.86 23.01 15.45 22.42"></polyline>
  <polyline fill="#ffd9aa" points="16.01 21.86 16 21.87 16 21.88"></polyline>
  <line x1="10.08" x2="8.94" y1="16.48" y2="17.62" fill="#ffd9aa"></line>
  <path fill="#ffd9aa" d="M16.6,21.273l-3.146,3.146-2.39,2.39L5.409,21.151c.177-.856.346-1.69.516-2.524.226-1.131.467-2.263.658-3.4a2.513,2.513,0,0,1,.368-1.032.963.963,0,0,1,1.428-.17,1.7,1.7,0,0,1,.4,1.245c.042.792.092,1.591.134,2.383l2.035-2.035Z"></path>
  <rect width="2" height="8" x="6.53" y="20.687" fill="#19a555" transform="rotate(-45 7.53 24.687)"></rect>
  <path fill="#55bb8c" d="M2.7,24.515h4a2,2,0,0,1,2,2v4a0,0,0,0,1,0,0H.7a0,0,0,0,1,0,0v-4a2,2,0,0,1,2-2Z" transform="rotate(-135 4.7 27.515)"></path>
  <path d="M31.188,25.04l-2.829-2.829,0,0L27.049,20.9q-.187-.887-.364-1.761l-.311-1.549c-.162-.815-.325-1.633-.464-2.458a3.161,3.161,0,0,0-.458-1.242,1.514,1.514,0,0,0-1.063-.607,1.428,1.428,0,0,0-1.1.36,2.109,2.109,0,0,0-.558,1.593c-.027.422-.05.846-.075,1.27l-.75-.75a1.408,1.408,0,0,0,.208-.18,1.492,1.492,0,0,0,.29-1.152,2.99,2.99,0,0,0-.556-1.2c-.519-.728-1.013-1.474-1.507-2.219L18.58,8.349V2.5A2.5,2.5,0,0,0,16.08,0h-4a2.5,2.5,0,0,0-2.5,2.5V16.273l-.235.235L9.27,15.174a2.056,2.056,0,0,0-.556-1.521A1.433,1.433,0,0,0,7.6,13.288a1.5,1.5,0,0,0-1.055.615,2.993,2.993,0,0,0-.454,1.24c-.149.891-.329,1.777-.509,2.663l-.632,3.1-1.3,1.3,0,0L.812,25.04a2.5,2.5,0,0,0,0,3.535L3.641,31.4a2.5,2.5,0,0,0,3.535,0L10,28.579l0,0,4.95-4.95.008-.012.81-.81a1.432,1.432,0,0,0,.281-.167l.992.985,3.531,3.541h0l1.412,1.4.006.009L24.824,31.4a2.5,2.5,0,0,0,3.535,0l2.829-2.829a2.5,2.5,0,0,0,0-3.535ZM10.58,2.5A1.5,1.5,0,0,1,12.08,1h4a1.5,1.5,0,0,1,1.5,1.5V6h-7Zm7,4.5V8h-7V7ZM6.469,30.7a1.536,1.536,0,0,1-2.121,0L1.519,27.868a1.5,1.5,0,0,1,0-2.121l2.475-2.475,4.95,4.95Zm3.183-3.181L4.7,22.566l.707-.707,4.95,4.95Zm4.594-4.6-.008.012L11.066,26.1,5.953,20.988l.608-2.982c.182-.9.364-1.794.514-2.692a2.12,2.12,0,0,1,.28-.826.5.5,0,0,1,.347-.205.441.441,0,0,1,.347.117c.181.159.2.488.227.9l.134,2.383a.5.5,0,0,0,.34.423.454.454,0,0,0,.116,0,.505.505,0,0,0,.075.015c.017,0,.033-.008.05-.01a.5.5,0,0,0,.086-.017.487.487,0,0,0,.218-.12l.287-.287V18.5a1.5,1.5,0,0,0,1.5,1.5,1.483,1.483,0,0,0,.5-.092V20.5a1.494,1.494,0,0,0,2.057,1.39,1.109,1.109,0,0,0,.086.231,1.457,1.457,0,0,0,.637.681Zm1.834-6.9a.513.513,0,0,0-.5.515V21.5a.508.508,0,0,1-.029.155l-.009.025-.008.022c0,.013-.01.025-.014.037l-.016.029a.473.473,0,0,1-.261.2.487.487,0,0,1-.623-.283.37.37,0,0,1-.04-.182v-6a.487.487,0,0,0-.5-.485.513.513,0,0,0-.5.515V20.5a.5.5,0,0,1-1,0v-6a.5.5,0,0,0-1,0v4a.5.5,0,0,1-1,0V9h7.231l1.7,2.563c.5.755,1,1.51,1.523,2.243a2.1,2.1,0,0,1,.386.784.485.485,0,0,1-.093.376.422.422,0,0,1-.3.166.472.472,0,0,0-.064.01c-.232,0-.472-.214-.767-.474l-1.78-1.59a.5.5,0,0,0-.538-.084.483.483,0,0,0-.251.3.506.506,0,0,0-.014.049.473.473,0,0,0-.031.106V20.5a.542.542,0,0,1-.037.186.519.519,0,0,0-.048.074.485.485,0,0,1-.686.159.5.5,0,0,1-.23-.419v-4A.487.487,0,0,0,16.08,16.015Zm1.675,6.9h0l-.958-.952A1.234,1.234,0,0,0,17.08,22a1.458,1.458,0,0,0,1.274-.725.675.675,0,0,0,.108-.193,1.508,1.508,0,0,0,.118-.582V14.567l1,.89a2.225,2.225,0,0,0,1.288.674l1.842,1.842c.006.006.014.008.02.014s0,.012.009.016c.023.023.057.027.084.045a.49.49,0,0,0,.07.038.477.477,0,0,0,.38.03.5.5,0,0,0,.32-.441c.04-.788.09-1.586.141-2.393.016-.354.033-.721.226-.892a.437.437,0,0,1,.334-.11.5.5,0,0,1,.35.2,2.272,2.272,0,0,1,.287.836c.138.822.3,1.649.467,2.474l.312,1.554q.167.817.34,1.646l-1.8,1.8L20.93,26.1Zm4.594,4.6-.71-.706,2.481-2.481,2.47-2.471.708.708-4.658,4.658Zm8.132.354L27.652,30.7a1.536,1.536,0,0,1-2.121,0l-2.475-2.475.213-.213,4.741-4.733,2.471,2.471a1.5,1.5,0,0,1,0,2.121Z"></path>
</svg>
