<svg xmlns="http://www.w3.org/2000/svg" viewBox="0 0 32 32" id="time-management-apps">
  <line x1="5.5" x2="16.5" y1="22.5" y2="22.5" fill="none" stroke="#000" stroke-linecap="round" stroke-linejoin="round"></line>
  <rect width="19" height="31" x="1.5" y=".5" fill="#58565d" rx="2" ry="2"></rect>
  <path fill="#3c3b41" d="M2.5,29.5V2.5a2,2,0,0,1,2-2h-1a2,2,0,0,0-2,2v27a2,2,0,0,0,2,2h1A2,2,0,0,1,2.5,29.5Z"></path>
  <rect width="15" height="23" x="3.5" y="2.5" fill="#4ebaea"></rect>
  <circle cx="11.5" cy="28.5" r="1" fill="#fff"></circle>
  <path fill="#7ec7ee" d="M12.44,11.13c0,7.28-3.89,13.3-8.94,14.24V2.5h6.87A18.22228,18.22228,0,0,1,12.44,11.13Z"></path>
  <polygon fill="#fff" points="16.5 4.5 5.5 4.5 5.5 7.5 12.5 7.5 14.5 7.5 16.5 7.5 16.5 4.5"></polygon>
  <polygon fill="#fff" points="5.5 13.5 16.5 13.5 16.5 16.5 9.5 16.5 7.5 16.5 5.5 16.5 5.5 13.5"></polygon>
  <path fill="#fff" d="M16.5 11H5.5a.5.5 0 0 1 0-1h11a.5.5 0 0 1 0 1zM16.5 20H5.5a.5.5 0 0 1 0-1h11a.5.5 0 0 1 0 1z"></path>
  <circle cx="23" cy="24" r="7.5" fill="#e5303e"></circle>
  <path fill="#b72732" d="M16.5,24a7.49442,7.49442,0,0,1,7-7.47479c-.166-.011-.33118-.02521-.5-.02521a7.5,7.5,0,0,0,0,15c.16882,0,.334-.01422.5-.02521A7.49442,7.49442,0,0,1,16.5,24Z"></path>
  <circle cx="23" cy="24" r="5.5" fill="#fff"></circle>
  <path fill="#e0e0e2" d="M18.5,24a5.49864,5.49864,0,0,1,5-5.47479c-.16492-.01489-.33118-.02521-.5-.02521a5.5,5.5,0,0,0,0,11c.16882,0,.33508-.01031.5-.02521A5.49868,5.49868,0,0,1,18.5,24Z"></path>
  <path fill="#3c3b41" d="M25.25 24.5H24a.5.5 0 0 1 0-1h1.25a.5.5 0 0 1 0 1zM23 23.5a.49971.49971 0 0 1-.5-.5V21.25a.5.5 0 0 1 1 0V23A.49971.49971 0 0 1 23 23.5z"></path>
  <circle cx="23" cy="24" r="1" fill="#e5303e" transform="rotate(-37.84 23 24)"></circle>
</svg>
