<svg xmlns="http://www.w3.org/2000/svg"  viewBox="0 0 256 256" width="64px" height="64px"><path fill="#cecece" d="M224.345,203.877H31.655c-8.465,0-15.327-6.862-15.327-15.327V27.871c0-8.465,6.862-15.327,15.327-15.327 h192.691c8.465,0,15.327,6.862,15.327,15.327V188.55C239.673,197.015,232.81,203.877,224.345,203.877z"/><path fill="#afafaf" d="M30.994,188.55V27.871c0-8.465,6.862-15.327,15.327-15.327H31.655c-8.465,0-15.327,6.862-15.327,15.327 V188.55c0,8.465,6.862,15.327,15.327,15.327h14.667C37.856,203.877,30.994,197.015,30.994,188.55z"/><path fill="#e2e2e2" d="M225.006,188.55V27.871c0-8.465-6.862-15.327-15.327-15.327h14.667c8.465,0,15.327,6.862,15.327,15.327 V188.55c0,8.465-6.862,15.327-15.327,15.327h-14.667C218.144,203.877,225.006,197.015,225.006,188.55z"/><path fill="#f8af23" d="M239.673,27.871c0-8.465-6.862-15.327-15.327-15.327H31.655c-8.465,0-15.327,6.862-15.327,15.327v26.673 h223.345V27.871z"/><path fill="#f87023" d="M46.321,12.544H31.655c-8.465,0-15.327,6.862-15.327,15.327v26.673h14.667V27.871 C30.994,19.406,37.856,12.544,46.321,12.544z"/><path fill="#f8d323" d="M209.679,12.544h14.667c8.465,0,15.327,6.862,15.327,15.327v26.673h-14.667V27.871 C225.006,19.406,218.144,12.544,209.679,12.544z"/><circle cx="43.688" cy="33.544" r="7" fill="#f46275"/><circle cx="70.65" cy="33.544" r="7" fill="#f46275"/><circle cx="97.612" cy="33.544" r="7" fill="#f46275"/><path fill="#f46275" d="M213.979,39.336h-88.573c-2.933,0-5.333-2.4-5.333-5.333v0c0-2.933,2.4-5.333,5.333-5.333h88.573 c2.933,0,5.333,2.4,5.333,5.333v0C219.313,36.936,216.913,39.336,213.979,39.336z"/><path fill="#cecece" d="M142.581,222.483V94.586c0-5.523,4.477-10,10-10h57.095c5.523,0,10,4.477,10,10v127.896 c0,5.523-4.477,10-10,10h-57.095C147.058,232.483,142.581,228.006,142.581,222.483z"/><path fill="#e2e2e2" d="M209.676,84.586h-14.667c5.523,0,10,4.477,10,10v127.896c0,5.523-4.477,10-10,10h14.667 c5.523,0,10-4.477,10-10V94.586C219.676,89.064,215.199,84.586,209.676,84.586z"/><rect width="77.095" height="119.969" x="142.581" y="94.42" fill="#63bce7"/><rect width="14.667" height="119.969" x="205.009" y="94.42" fill="#63e2e7"/><circle cx="181.128" cy="223.436" r="3.147" fill="#3f3679"/><rect width="55.95" height="25.757" x="153.153" y="107.032" fill="#cecece"/><rect width="55.95" height="25.757" x="153.153" y="141.526" fill="#cecece"/><rect width="55.95" height="25.757" x="153.153" y="176.02" fill="#cecece"/><g><rect width="88.571" height="40.775" x="37.923" y="74.62" fill="#63bce7"/><polygon fill="#f8af23" points="37.923,115.395 82.208,79.116 126.494,115.395"/><polygon fill="#f46275" points="103.445,96.513 114.792,87.217 126.494,96.803 126.494,115.395"/></g><rect width="88.571" height="36.703" x="37.923" y="129.901" fill="#f46275"/><polygon fill="#9e9e9e" points="116.344,155.183 86.587,145.343 91.12,176.355 97.977,166.647 110.344,181.38 117.96,174.986 105.594,160.254"/><g><path fill="#3f3679" d="M27.323,241.956H9.32c-0.829,0-1.5,0.671-1.5,1.5s0.671,1.5,1.5,1.5h18.003c0.829,0,1.5-0.671,1.5-1.5 S28.152,241.956,27.323,241.956z"/><path fill="#3f3679" d="M246.68,241.956h-18.003c-0.829,0-1.5,0.671-1.5,1.5s0.671,1.5,1.5,1.5h18.003c0.829,0,1.5-0.671,1.5-1.5 S247.509,241.956,246.68,241.956z"/><path fill="#3f3679" d="M218.479,241.956H37.521c-0.829,0-1.5,0.671-1.5,1.5s0.671,1.5,1.5,1.5h180.959c0.829,0,1.5-0.671,1.5-1.5 S219.308,241.956,218.479,241.956z"/><path fill="#3f3679" d="M9.32,233.983h143.261h57.095h37.004c0.829,0,1.5-0.671,1.5-1.5s-0.671-1.5-1.5-1.5h-29.286 c2.316-2.105,3.781-5.131,3.781-8.5v-8.094v-9.012h3.169c9.278,0,16.827-7.549,16.827-16.827V54.544V27.872v0 c0-5.799-2.949-10.922-7.426-13.949c-2.686-1.816-5.922-2.878-9.402-2.878H31.655c-3.479,0-6.716,1.062-9.402,2.878 c-4.477,3.027-7.426,8.15-7.426,13.949v0v26.672V188.55c0,9.278,7.549,16.827,16.827,16.827h109.426v9.012v8.094 c0,3.369,1.465,6.395,3.781,8.5H9.32c-0.829,0-1.5,0.671-1.5,1.5S8.491,233.983,9.32,233.983z M144.081,95.92h74.095v116.969 h-74.095V95.92z M144.247,92.92c0.777-3.891,4.217-6.833,8.334-6.833h57.095c4.117,0,7.557,2.942,8.334,6.833H144.247z M31.655,14.044h192.69c0.953,0,1.884,0.097,2.783,0.281c6.295,1.292,11.044,6.875,11.044,13.546v25.172H17.828V27.872 c0-6.671,4.749-12.255,11.044-13.546C29.771,14.141,30.702,14.044,31.655,14.044z M31.655,202.377 c-7.625,0-13.827-6.203-13.827-13.827V56.044h220.345V188.55c0,7.625-6.203,13.827-13.827,13.827h-3.169V94.586V94.42 c0-0.058-0.011-0.113-0.017-0.169c-0.18-6.186-5.255-11.165-11.483-11.165h-57.095c-6.228,0-11.303,4.979-11.483,11.165 c-0.006,0.056-0.017,0.111-0.017,0.169v0.167v107.791H31.655z M144.081,222.483v-6.594h74.095v6.594c0,4.687-3.813,8.5-8.5,8.5 h-57.095C147.894,230.983,144.081,227.17,144.081,222.483z"/><path fill="#3f3679" d="M43.687,42.044c4.687,0,8.5-3.813,8.5-8.5s-3.813-8.5-8.5-8.5c-4.687,0-8.5,3.813-8.5,8.5 S39,42.044,43.687,42.044z M43.687,28.044c3.033,0,5.5,2.467,5.5,5.5s-2.467,5.5-5.5,5.5c-3.033,0-5.5-2.467-5.5-5.5 S40.655,28.044,43.687,28.044z"/><path fill="#3f3679" d="M70.65,42.044c4.687,0,8.5-3.813,8.5-8.5s-3.813-8.5-8.5-8.5s-8.5,3.813-8.5,8.5S65.963,42.044,70.65,42.044 z M70.65,28.044c3.033,0,5.5,2.467,5.5,5.5s-2.467,5.5-5.5,5.5s-5.5-2.467-5.5-5.5S67.617,28.044,70.65,28.044z"/><path fill="#3f3679" d="M97.612,42.044c4.687,0,8.5-3.813,8.5-8.5s-3.813-8.5-8.5-8.5s-8.5,3.813-8.5,8.5 S92.925,42.044,97.612,42.044z M97.612,28.044c3.033,0,5.5,2.467,5.5,5.5s-2.467,5.5-5.5,5.5s-5.5-2.467-5.5-5.5 S94.58,28.044,97.612,28.044z"/><path fill="#3f3679" d="M125.406,40.836h88.573c3.768,0,6.833-3.065,6.833-6.833s-3.065-6.833-6.833-6.833h-88.573 c-3.768,0-6.833,3.065-6.833,6.833S121.638,40.836,125.406,40.836z M125.406,30.169h88.573c2.114,0,3.833,1.72,3.833,3.833 s-1.72,3.833-3.833,3.833h-88.573c-2.114,0-3.833-1.72-3.833-3.833S123.292,30.169,125.406,30.169z"/><path fill="#3f3679" d="M209.103,105.532h-55.95c-0.829,0-1.5,0.671-1.5,1.5v25.757c0,0.829,0.671,1.5,1.5,1.5h55.95 c0.829,0,1.5-0.671,1.5-1.5v-25.757C210.603,106.203,209.932,105.532,209.103,105.532z M154.653,109.373l22.888,10.537 l-22.888,10.537V109.373z M207.603,130.447l-22.888-10.537l22.888-10.537V130.447z M181.128,118.259l-21.13-9.728h42.26 L181.128,118.259z M181.128,121.562l21.13,9.728h-42.26L181.128,121.562z"/><path fill="#3f3679" d="M209.103,140.026h-55.95c-0.829,0-1.5,0.671-1.5,1.5v25.757c0,0.829,0.671,1.5,1.5,1.5h55.95 c0.829,0,1.5-0.671,1.5-1.5v-25.757C210.603,140.697,209.932,140.026,209.103,140.026z M154.653,143.868l22.888,10.537 l-22.888,10.537V143.868z M159.998,143.026h42.26l-21.13,9.728L159.998,143.026z M181.128,156.056l21.13,9.728h-42.26 L181.128,156.056z M184.715,154.405l22.888-10.537v21.074L184.715,154.405z"/><path fill="#3f3679" d="M209.103,174.52h-55.95c-0.829,0-1.5,0.671-1.5,1.5v25.757c0,0.829,0.671,1.5,1.5,1.5h55.95 c0.829,0,1.5-0.671,1.5-1.5V176.02C210.603,175.191,209.932,174.52,209.103,174.52z M154.653,178.362l22.888,10.537 l-22.888,10.537V178.362z M159.998,177.52h42.26l-21.13,9.728L159.998,177.52z M181.128,190.55l21.13,9.728h-42.26L181.128,190.55 z M184.715,188.899l22.888-10.537v21.074L184.715,188.899z"/><path fill="#3f3679" d="M126.494,73.12H37.923c-0.829,0-1.5,0.671-1.5,1.5v40.775c0,0.829,0.671,1.5,1.5,1.5h88.571 c0.829,0,1.5-0.671,1.5-1.5V74.62C127.994,73.792,127.322,73.12,126.494,73.12z M102.499,97.677c0.001,0,0.001,0.001,0.002,0.001 l19.796,16.217H42.121l40.088-32.841L102.499,97.677z M105.811,96.513l8.981-7.357l10.201,8.357v14.715L105.811,96.513z M124.994,76.12v17.515l-9.25-7.578c-0.553-0.453-1.349-0.453-1.901,0l-10.397,8.517L83.159,77.956 c-0.553-0.453-1.349-0.453-1.901,0l-41.835,34.272V76.12H124.994z"/><path fill="#3f3679" d="M126.494,128.401H37.923c-0.829,0-1.5,0.671-1.5,1.5v36.703c0,0.829,0.671,1.5,1.5,1.5h50.475l1.238,8.468 c0.089,0.607,0.539,1.099,1.135,1.242c0.598,0.142,1.22-0.093,1.574-0.594l5.734-8.119l11.116,13.242 c0.256,0.305,0.622,0.496,1.019,0.53c0.043,0.004,0.087,0.006,0.13,0.006c0.352,0,0.693-0.124,0.964-0.351l7.616-6.394 c0.635-0.533,0.717-1.479,0.185-2.113l-4.967-5.918h12.352c0.829,0,1.5-0.671,1.5-1.5v-36.703 C127.994,129.072,127.322,128.401,126.494,128.401z M110.529,179.267l-11.403-13.584c-0.286-0.34-0.707-0.536-1.149-0.536 c-0.021,0-0.042,0-0.063,0.001c-0.465,0.019-0.895,0.253-1.163,0.633l-4.69,6.641l-3.64-24.893l23.886,7.898l-7.354,3.469 c-0.421,0.198-0.726,0.581-0.826,1.035s0.017,0.929,0.316,1.286l11.402,13.584L110.529,179.267z M124.994,165.104h-13.37 l-3.63-4.324l8.989-4.24c0.555-0.262,0.895-0.835,0.857-1.447c-0.037-0.613-0.443-1.141-1.026-1.333l-29.757-9.84 c-0.491-0.162-1.036-0.059-1.435,0.275c-0.398,0.334-0.595,0.851-0.52,1.366l2.857,19.544H39.423v-33.703h85.571V165.104z"/></g></svg>